<?xml version="1.0" encoding="utf-8"?>
<!-- Generator: Adobe Illustrator 25.4.1, SVG Export Plug-In . SVG Version: 6.00 Build 0)  -->
<svg version="1.1" id="Layer_1" xmlns="http://www.w3.org/2000/svg" xmlns:xlink="http://www.w3.org/1999/xlink" x="0px" y="0px"
	 viewBox="0 0 402.42 500" style="enable-background:new 0 0 402.42 500;" xml:space="preserve">
<style type="text/css">
	.st0{fill:#FFFFFF;}
	.st1{fill:url(#SVGID_1_);}
	.st2{fill:#1A2857;}
	.st3{fill:url(#SVGID_00000018917292198245711900000015697435676287156131_);}
	.st4{fill:#3D195B;}
</style>
<g>
	<polygon class="st4" points="389.6,388.05 389.61,388.05 389.6,388.05 	"/>
	<path class="st4" d="M356.48,190.55l-1.7,12.9l-17.04-17.99c0,0,3.15-1.52,6.33-5.23c0.19-1.48-1.07-10.36-8.14-16.15
		c-6.88,1.68-11.92,5.5-14.62,9.25c-9.4-8.23-19.92-11.39-19.92-11.39c1.87,1.39,12.93,16.41,14.18,20.72
		c10.14,8.21,23.24,17.81,32.33,29.32c-7.17-8.12-42.11-10.09-58.17-1.52c0,0-15.77-18.1-30.31-30.73
		c-3.03-11.04,6.98-20.15,6.98-20.15s-10.1-0.29-19.77,8.9c-14.55-10.5-32.94-15.55-32.94-15.55
		c-20.38,3.08-34.32,17.05-34.32,17.05c4.96,3.04,11.29,6.69,16.72,8.76c11.34,4.31,21.68,2.97,28.62,2.93
		c5.55-0.04,13.44,1.56,13.44,1.56s13.73,9.99,33.59,32.36c-30.2-11.82-62.27,1.7-84.59-9.19c-26.04-12.72-24.23-33.01-24.23-33.01
		s-17.71-2.46-17.86-2.77c0,0,12.98-16.74,32.96-22.73l-10.1-8.39c11.59-9.81,32.91-22.28,66.06-26.92c0,0,14.83,5.35,45.03,26.61
		c5.22-6.85,6.46-21.11,6.46-21.11c15.16,5.33,46.92,27.62,59.56,41.42c-6.67-15.63-11.71-25.5-13.31-41.96
		c-7.8-7.47-26.42-22.96-65.43-32.23c6.01,12.76,5.51,23.33,5.51,23.33c-7.17-8.97-22.55-23.37-33.02-27.47
		c-6.56-0.57-13.27-0.86-20-0.86c-36.03,0-70.08,8.47-100.07,23.53h0.02c15.88,0.88,26.48,13.89,30.1,24.23
		c-12.16-9.27-31.19-13.38-42.5-1.42c-11.32,11.86-10.01,34.76,0.82,53.28c-25.51-12.6-25.39-45.71-16.68-59.13l-0.04,0.02
		c-29,20.5-52.71,47.78-68.58,79.44h0.02l23.37,3.65C18.69,233.52,0.37,286.19,0.37,311.01l37.42-11.3
		c-6.71,21.75-8.73,95.63,13.75,132.46c0,0,29.44-19.7,62.72-69.96c14.22,45.06,7.59,82.68,0.13,119.82
		c60.09,33.16,130.04,14.53,170.8-14.2l7.34,28.09c48.02-30.84,74.16-75.05,79.25-127.12l17.83,19.26
		C417.11,308.51,395.72,245.23,356.48,190.55z M251.37,302.6c-12.41-22.65-23.74-43.64-23.74-43.64s33.57-27.21,61.29-31.29
		c13.8,10.44,26.73,14.48,26.73,14.48l0.04,28.25h0C305.31,278.7,273.18,305.58,251.37,302.6z M343.57,321.62
		c-4.73,23.53-18.15,38.47-27.89,43.97c0.86-17.03-3.72-31.45-3.72-31.45c-6.94,7.88-24.17,15.41-33.95,17.5
		c-4.96-9.29-14.76-27.08-14.76-27.08c17.79-0.57,46.96-25.03,46.96-25.03l21.64-0.51C341.34,309.93,343.57,321.62,343.57,321.62
		L343.57,321.62z M353.66,299.44c-5.76-12.82-13.46-19.86-21.26-28.35l-0.13-28.35c0,0,9.25-4.99,20.17-13.93v0
		C362.5,252.01,364.6,280.24,353.66,299.44z"/>
</g>
<path class="st4" d="M79.68,42.01c22.63,10.11,37.16,22.88,39.81,24.83c-1.2-5.7-5.66-33.16-8.22-50.21
	c13.19,8.93,43.79,29.65,53.86,36.38c4.1-12.33,18.32-52.61,18.32-52.61s25.7,40.58,30.1,47.17c5.36-5.48,36.07-38.82,44.02-47.25
	c1.32,19.18,3.13,46.61,3.6,50.74c1.53-2.03,13.29-18.12,33-32.93c-8.54,16.41-12.62,39.06-14.43,57.26
	c-19.39-5.27-39.86-8.1-60.93-8.1c-40.49,0-78.51,10.38-111.38,28.62C101.45,78.33,92.09,56.46,79.68,42.01"/>
</svg>
