<svg width="110" height="110" fill="none" xmlns="http://www.w3.org/2000/svg"><g clip-path="url(#a)"><path d="M54.953 75.425a37.69 37.69 0 0 1-10.12-1.42v3.571c.003.394.106.781.3 1.124 3.22 4.408 6.63 9.37 6.63 14.408v13.14h6.387V93.112c0-5.042 3.415-10 6.634-14.408.192-.344.293-.73.296-1.124v-3.572a37.638 37.638 0 0 1-10.127 1.417Zm.034 2.192c3.56.075 4.22-.165 7.87-.423-.633 3.83-6.952 4.276-7.87.423Z" fill="#000"/><path d="m74.829 14.501-.247-.206.228.195.019.011Z" fill="#D8DBE2"/><path d="m78.772 18.47.097.12.191.24-.27-.345-.09-.113-.116-.138-.04-.053-.038-.04.026.03.24.299ZM85.555 37.544v-.131l-.015-.622.011.558.004.195ZM85.533 36.51l-.022-.544-.004-.053.034.836-.008-.24ZM83.798 27.435l-.026-.078-.203-.54.266.73-.037-.112ZM83.918 27.78l-.071-.206-.012-.026.113.318-.03-.086ZM80.48 20.854l.285.442.375.652.203.345.27.412.438.787a23.93 23.93 0 0 0-.75-1.338 22.822 22.822 0 0 0-1.349-2.065l.101.154.428.61ZM82.141 23.627l-.075-.13.09.16-.015-.03ZM78.577 18.365l-.102-.139.102.139ZM78.884 18.804l.003.003-.003-.003ZM79.251 19.152a26.356 26.356 0 0 0-1.15-1.473l-.671-.75-.165-.176.375.439c.322.375.592.723.824 1.042l-.1-.188c.108.098.483.559.887 1.106ZM79.274 19.178l-.019-.026.06.083-.041-.057Z" fill="#fff"/><path d="M64.645 55.943c-1.281-1.125-3.373-1.035-5.352.206 2.005.198 2.89 1.008 3.231 1.319a2.624 2.624 0 0 1 .705 2.624c1.956-1.252 2.515-2.879 1.42-4.142-.378.289-.382.285-.004-.008ZM54.552 57.674c2.324-1.465 1.784-3.373.855-4.314-1.5-1.341-3.617-1.428-5.397-.228 2.818.45 4.77 2.402 4.542 4.542ZM52.46 49.32c1.65-1.567 1.706-3.688.15-5.412-1.768-1.6-3.987-1.634-5.651-.09a6.724 6.724 0 0 1 3.785 1.874 5.866 5.866 0 0 1 1.717 3.628ZM70.106 51.022a3.505 3.505 0 0 1 .922 3.032c1.694-1.803 2.035-3.748.892-5.06-.318.375-.33.375 0 0-1.304-1.124-3.234-.772-5.044.903 1.96 0 2.878.806 3.23 1.125ZM62.198 52.318c2.249-2.061 1.597-4.284.607-5.27-1.593-1.42-3.823-1.341-5.678.2 3.025.337 5.108 2.42 5.071 5.07ZM42.618 40.565c-1.581-1.425-3.429-1.245-4.71.457 2.36 0 4.497 2.117 4.928 4.928a4.036 4.036 0 0 0-.218-5.386ZM43.604 33.728c2.823.131 5.086 2.395 5.502 5.502 1.998-2.286 1.087-4.79.045-5.831-1.694-1.522-3.871-1.395-5.547.33ZM44.41 51.494l-.071.063a4.767 4.767 0 0 1 1.432 3.01c1.499-1.196 1.593-2.957.21-4.498l-.068.06.068-.06c-1.57-1.42-3.475-1.499-4.873-.157a5.828 5.828 0 0 1 3.231 1.657l.071-.075ZM44.118 20.01c2.399-2.068 1.96-3.687 1.394-4.257-1.124-.952-3.07-.686-4.973.682 2.413-.266 3.852 1.17 3.579 3.576ZM35.063 31.907a3.467 3.467 0 0 1 2.945 1.038 5.772 5.772 0 0 1 1.54 3.448c1.313-1.9 1.331-4.059.05-5.513-1.436-1.256-3.216-.855-4.535 1.027Z" fill="#000"/><path d="M29.67 36.262c1.577 22.263 29.387 35.632 46.707 19.977 11.993-10.026 12.477-30.134 1.072-41.022-17.93-18.204-49.627-4.356-47.78 21.045Zm8.245 4.76c1.282-1.702 3.13-1.874 4.711-.458a4.037 4.037 0 0 1 .21 5.383c-.45-2.808-2.567-4.925-4.929-4.925h.008Zm12.837 4.666a6.724 6.724 0 0 0-3.786-1.874c1.664-1.544 3.883-1.5 5.652.09 1.556 1.724 1.5 3.845-.15 5.412a5.866 5.866 0 0 0-1.716-3.628Zm-1.638-6.458c-.416-3.107-2.68-5.37-5.502-5.502 1.675-1.724 3.853-1.852 5.547-.33 1.034 1.042 1.945 3.553-.053 5.832h.008ZM45.988 50.1l-.068.06.068-.06c1.383 1.528 1.3 3.29-.21 4.497a4.767 4.767 0 0 0-1.44-3.029l.072-.063-.071.063a5.829 5.829 0 0 0-3.212-1.619c1.38-1.338 3.283-1.274 4.853.147l.008.003Zm9.434 3.264c.93.93 1.469 2.848-.855 4.314.221-2.14-1.731-4.093-4.542-4.543 1.772-1.192 3.89-1.117 5.39.225l.007.004Zm1.713-6.11c1.855-1.54 4.085-1.619 5.678-.198.99.986 1.641 3.208-.607 5.27.03-2.658-2.054-4.742-5.079-5.075l.008.004Zm6.105 12.837a2.623 2.623 0 0 0-.705-2.623c-.34-.311-1.225-1.125-3.23-1.32 1.971-1.24 4.07-1.319 5.352-.206-.375.293-.375.297 0 0 1.09 1.267.532 2.894-1.424 4.146l.007.003Zm8.677-11.105c1.124 1.32.802 3.257-.892 5.06a3.505 3.505 0 0 0-.922-3.032c-.353-.323-1.271-1.147-3.231-1.125 1.803-1.694 3.733-2.024 5.037-.907l.008.004Zm13.646-11.57V36.794v.622Zm-.049-1.45.027.547v.236l-.038-.836.011.053Zm-1.739-8.62.03.082.038.108v.03l.07.203.027.086-.108-.319-.27-.727.213.536Zm-2.44-5.2c.229.394.484.851.75 1.339l.075.13v.035l-.09-.165-.439-.787-.27-.413-.198-.326-.375-.652-.285-.442-.4-.611L80 20.1c.479.66.922 1.346 1.327 2.054l.007-.007Zm-2.796-3.969.045.053.117.142.09.11.266.344-.188-.236-.101-.12-.24-.3-.022-.034.033.041Zm-2.323-2.507a13.873 13.873 0 0 0-1.095-.914c.446.374.907.727 1.334 1.15.763.77 1.47 1.59 2.118 2.459l-.097-.142a17.6 17.6 0 0 0-.825-1.042l-.375-.439.165.176.671.75c.544.648.922 1.158 1.15 1.473v.022l.046.06-.064-.082a27.384 27.384 0 0 0-.877-1.125l.101.188.097.142.312.439c4.475 6.263 4.973 13.8.75 18.02-4.9 4.899-14.266 3.474-20.922-3.182-6.657-6.656-8.08-16.019-3.182-20.917 4.407-4.408 12.417-3.659 18.83 1.379a19.6 19.6 0 0 1 1.705 1.431l.158.154Zm-.491-.457.026.026-.113-.105.087.079Zm-2.46-2.031.777.584.423.349.375.3.094.082a37.096 37.096 0 0 0-1.71-1.357l.042.041Zm-7.889-4.273.195.075-.213-.083.018.008ZM46.584 23.657c1.297 1.5 1.068 3.527-.604 5.349a5.154 5.154 0 0 0-1.405-3.512 4.326 4.326 0 0 0-3.336-1.233c1.81-1.683 3.86-1.916 5.345-.604Zm-1.072-7.904c.566.57 1.004 2.188-1.394 4.257.273-2.406-1.166-3.841-3.58-3.575 1.904-1.368 3.857-1.634 4.974-.682Zm-5.918 15.134c1.282 1.454 1.263 3.613-.049 5.513a5.772 5.772 0 0 0-1.54-3.448 3.467 3.467 0 0 0-2.942-1.045c1.326-1.875 3.107-2.283 4.535-1.024l-.004.004Zm-1.765-8.815c.69.69 1.045 2.623-.799 5.082-.034-2.729-1.499-4.194-3.568-3.568 1.51-1.885 3.223-2.477 4.367-1.514Z" fill="#D8DBE2"/><path d="M41.232 24.253a4.325 4.325 0 0 1 3.335 1.233c.897.95 1.4 2.206 1.406 3.512 1.672-1.821 1.9-3.868.603-5.348-1.484-1.316-3.534-1.08-5.344.603ZM37.03 27.154c1.844-2.47 1.5-4.392.798-5.082-1.143-.963-2.856-.375-4.366 1.5 2.065-.612 3.534.854 3.568 3.582Z" fill="#000"/><path d="m74.825 14.404-.375-.3-.423-.349-.776-.585-.056-.04c.374.284.974.726 1.709 1.356l-.079-.082ZM75.725 15.202l-.087-.075.117.101-.03-.026ZM65.376 8.898l-.015-.008.21.083-.195-.075Z" fill="#fff"/><path d="M54.987 77.617c.918 3.853 7.237 3.407 7.87-.423-3.65.258-4.31.498-7.87.423Z" fill="#D8DBE2"/><path d="M92.665 37.7A37.712 37.712 0 1 0 41.06 72.746v4.83c0 1.028.258 2.038.75 2.94l.116.21.139.19c2.998 4.093 5.91 8.41 5.91 12.196V110h13.924V93.111c0-3.785 2.92-8.103 5.91-12.196l.143-.19.113-.207a6.095 6.095 0 0 0 .75-2.942v-4.831A37.747 37.747 0 0 0 92.665 37.7Zm-27.88 41.004c-3.22 4.408-6.635 9.37-6.635 14.407v13.141h-6.398v-13.14c0-5.042-3.41-10-6.63-14.408a2.311 2.311 0 0 1-.3-1.124v-3.572a37.682 37.682 0 0 0 10.12 1.42 37.635 37.635 0 0 0 10.12-1.42v3.572a2.35 2.35 0 0 1-.278 1.124Zm2.623-9.419c-.51.199-1.02.375-1.54.563l-.462.168h-.138a33.73 33.73 0 0 1-8.876 1.623 33.188 33.188 0 0 1-35.4-33.71V36.273l.083-.7c.09-1.307.255-2.608.495-3.895.086-.506.187-1.005.3-1.5a33.894 33.894 0 0 1 1.577-5.074 36.766 36.766 0 0 1 2.11-4.333 33.635 33.635 0 0 1 1.953-2.998l.502-.671A33.89 33.89 0 0 1 47.026 4.734l.832-.214c.375-.083.75-.135 1.147-.202 10.42-2.103 21.76.374 30.288 9.085 8.642 8.474 11.15 19.73 9.111 30.096-.079.465-.146.933-.244 1.394l-.176.686A33.923 33.923 0 0 1 75.47 64.758l-.435.326a33.617 33.617 0 0 1-3.43 2.249l-.873.48a34.533 34.533 0 0 1-3.317 1.472h-.007Z" fill="#fff"/><path d="M55.534 12.724c-4.898 4.899-3.474 14.265 3.182 20.918 6.657 6.653 16.023 8.08 20.922 3.182 4.22-4.22 3.721-11.757-.75-18.02l-.311-.439a23.063 23.063 0 0 0-2.118-2.459c-.427-.423-.888-.768-1.334-1.15.38.286.746.59 1.094.914l-.146-.135c-.54-.509-1.11-.987-1.705-1.431-6.417-5.038-14.426-5.787-18.834-1.38Zm19.295 1.777h-.023l-.225-.195.248.195Z" fill="#fff"/><path d="m75.02 65.061.435-.326a35.569 35.569 0 0 0 12.514-19.163l.177-.686c.108-.461.153-.93.243-1.394 2.04-10.367-.468-21.622-9.111-30.097C70.75 4.696 59.413 2.208 48.99 4.31c-.375.075-.75.113-1.147.203l-.832.213a35.539 35.539 0 0 0-19.013 12.369l-.503.67a32.035 32.035 0 0 0-1.952 2.999 31.83 31.83 0 0 0-.892 1.657c-.458.873-.832 1.765-1.207 2.683-.244.604-.465 1.21-.671 1.83a32.87 32.87 0 0 0-1.207 4.744 34.152 34.152 0 0 0-.457 3.883l-.083.7c-.026.376 0 .75 0 1.125v.532a33.187 33.187 0 0 0 35.4 33.71 33.73 33.73 0 0 0 8.875-1.623l.6-.169c.521-.176 1.03-.374 1.54-.562 1.128-.44 2.23-.94 3.302-1.499l.874-.48a32.4 32.4 0 0 0 3.403-2.234Zm2.429-49.848c11.405 10.87 10.914 30.996-1.072 41.022-17.327 15.659-45.13 2.29-46.708-19.973-1.848-25.4 29.85-39.25 47.78-21.049Z" fill="#000"/></g><defs><clipPath id="a"><path fill="#fff" d="M0 0h110v110H0z"/></clipPath></defs></svg>