<?xml version="1.0" encoding="utf-8"?>
<!-- Generator: Adobe Illustrator 25.4.1, SVG Export Plug-In . SVG Version: 6.00 Build 0)  -->
<svg version="1.1" id="Layer_1" xmlns="http://www.w3.org/2000/svg" xmlns:xlink="http://www.w3.org/1999/xlink" x="0px" y="0px"
	 viewBox="0 0 488.29 339.17" style="enable-background:new 0 0 488.29 339.17;" xml:space="preserve">
<style type="text/css">
	.st0{fill-rule:evenodd;clip-rule:evenodd;fill:#1A3B73;}
	.st1{fill-rule:evenodd;clip-rule:evenodd;fill:#FFFFFF;}
	.st2{fill-rule:evenodd;clip-rule:evenodd;fill:#CF4044;}
	.st3{fill:#007AC2;}
	.st4{fill:#E4002B;}
	.st5{fill:#FFD659;}
	.st6{fill:#7814FF;}
	.st7{display:none;fill:#FFFFFF;}
	.st8{fill:#151D33;}
	.st9{fill:#FFD201;}
	.st10{fill:#FFFFFF;}
	.st11{fill:#343636;}
	.st12{clip-path:url(#SVGID_00000000207040854712425890000007699798516573409177_);}
	.st13{fill:#00509D;}
	.st14{fill:#2EBAE8;}
	.st15{fill:#00B3E5;}
	.st16{fill:#00AFE3;}
	.st17{fill:#0070B8;}
	.st18{fill:#009ED8;}
	.st19{fill:#00A3DB;}
	.st20{fill:#008ACB;}
	.st21{fill:#006DB5;}
	.st22{fill:#0074BA;}
	.st23{fill:#0089CA;}
	.st24{fill:#0065AE;}
	.st25{fill:#0072B9;}
	.st26{fill:#0065AF;}
	.st27{fill:#009FD8;}
	.st28{fill:#0078BD;}
	.st29{fill:#0079BF;}
	.st30{fill:#00A0D9;}
	.st31{fill:#0080C3;}
	.st32{fill:#0098D4;}
	.st33{fill:#008ACA;}
	.st34{fill:#008DCD;}
	.st35{fill:#00A4DC;}
	.st36{fill:#0083C6;}
	.st37{fill:#0086C8;}
	.st38{fill:#009CD6;}
	.st39{fill:#009DD7;}
	.st40{fill:#00A6DD;}
	.st41{fill:#009CD7;}
	.st42{fill:#00A9DF;}
	.st43{fill:#00A2DA;}
	.st44{fill:#00519D;}
	.st45{fill:#0087C8;}
	.st46{fill:#006CB4;}
	.st47{fill:#0086C7;}
	.st48{fill:#009AD5;}
	.st49{fill:#007DC1;}
	.st50{fill:#00A5DC;}
	.st51{fill:#00A2DB;}
	.st52{fill:#00A5DD;}
	.st53{fill:#00A8DF;}
	.st54{fill:#0094D1;}
	.st55{fill:#00A6DE;}
	.st56{fill:#00A1DA;}
	.st57{fill:#00A7DE;}
	.st58{fill:#00A8DE;}
	.st59{fill:#00AAE0;}
	.st60{fill:#0090CE;}
	.st61{fill:#009BD6;}
	.st62{fill:#00A9E0;}
	.st63{fill:#008CCC;}
	.st64{fill:#0082C5;}
	.st65{fill:#007FC3;}
	.st66{fill:#0081C4;}
	.st67{fill:#00ABE1;}
	.st68{fill:#007EC2;}
	.st69{fill:#007FC2;}
	.st70{fill:#0096D2;}
	.st71{fill:#0096D3;}
	.st72{fill:#00B1E4;}
	.st73{fill:#04B5E6;}
	.st74{fill:#1FB8E7;}
	.st75{fill:#26B9E8;}
	.st76{fill:#00A7DD;}
	.st77{fill:#00ABE0;}
	.st78{fill:#009FD9;}
	.st79{fill:#00B0E3;}
	.st80{fill:#0AB7E7;}
	.st81{fill:#00B4E5;}
	.st82{fill:#00B5E6;}
	.st83{fill:#20B7E7;}
	.st84{fill:#29B8E7;}
	.st85{fill:#15B7E7;}
	.st86{fill:#32BAE8;}
	.st87{fill:#00ACE1;}
	.st88{fill:#00B2E4;}
	.st89{fill:#38BBE9;}
	.st90{fill:#42BFEB;}
	.st91{fill:#00B2E5;}
	.st92{fill:#35BBE8;}
	.st93{fill:#0093D0;}
	.st94{fill:#008BCB;}
	.st95{fill:#008CCB;}
	.st96{fill:#0092D0;}
	.st97{fill:#008ECD;}
	.st98{fill:#00A4DB;}
	.st99{fill:#0085C7;}
	.st100{fill:#0088C9;}
	.st101{fill:#0083C5;}
	.st102{fill:#0093D1;}
	.st103{fill:#007ABF;}
	.st104{fill:#0095D2;}
	.st105{fill:#008DCC;}
	.st106{fill:#0079BE;}
	.st107{fill:#0077BD;}
	.st108{fill:#0076BC;}
	.st109{fill:#0074BB;}
	.st110{fill:#006FB7;}
	.st111{fill:#00ACE2;}
	.st112{fill:#00AEE2;}
	.st113{fill:#0097D3;}
	.st114{fill:#48BFEA;}
	.st115{fill:#007CC1;}
	.st116{fill:#29BAE9;}
	.st117{fill:#0099D4;}
	.st118{fill:#0099D5;}
	.st119{fill:#33BCEA;}
	.st120{fill:#36BCEA;}
	.st121{fill:#00B1E3;}
	.st122{fill:#49C1EB;}
	.st123{fill:#39BDEA;}
	.st124{fill:#30BCE9;}
	.st125{fill:#00AFE2;}
	.st126{fill:#33B7E6;}
	.st127{fill:#4BC1EC;}
	.st128{fill:#34BBE9;}
	.st129{fill:#3BBDEA;}
	.st130{fill:#43BEEA;}
	.st131{fill:#00ADE2;}
	.st132{fill:#07B5E6;}
	.st133{fill:#3FBDEA;}
	.st134{fill:#54C2EB;}
	.st135{fill:#28B9E8;}
	.st136{fill:#41BEEA;}
	.st137{fill:#2BB7E6;}
	.st138{fill:#54C1EB;}
	.st139{fill:#59C4EC;}
	.st140{fill:#58C2EB;}
	.st141{fill:#4CC0EB;}
	.st142{fill:#50C1EB;}
	.st143{fill:#47BFEB;}
	.st144{fill:#21B7E7;}
	.st145{fill:#55C3EC;}
	.st146{fill:#67C7ED;}
	.st147{fill:#59C3EC;}
	.st148{fill:#56C2EC;}
	.st149{fill:#5FC4EC;}
	.st150{fill:#6DC8EE;}
	.st151{fill:#64C5ED;}
	.st152{fill:#51BFEA;}
	.st153{fill:#62C5EC;}
	.st154{fill:#3EBEEA;}
	.st155{fill:#69C6ED;}
	.st156{fill:#0075BC;}
	.st157{fill:#008FCE;}
	.st158{fill:#31B5E5;}
	.st159{fill:#4DBCE8;}
	.st160{fill:#006EB6;}
	.st161{fill:#009AD6;}
	.st162{fill:#74CBEF;}
	.st163{fill:#56BFE9;}
	.st164{fill:#66C5EC;}
	.st165{fill:#70CAEE;}
	.st166{fill:#59C0EA;}
	.st167{fill:#61C3EB;}
	.st168{fill:#60C2EB;}
	.st169{fill:#52BEE9;}
	.st170{fill:#65C6ED;}
	.st171{fill:#3BB6E5;}
	.st172{fill:#27B2E3;}
	.st173{fill:#0071B9;}
	.st174{fill:#007CC0;}
	.st175{fill:#31B6E5;}
	.st176{fill:#00AADF;}
	.st177{fill:#3EB9E7;}
	.st178{fill:#008FCD;}
	.st179{fill:#007BBF;}
	.st180{fill:#4CBDE9;}
	.st181{fill:#03B1E3;}
	.st182{fill:#1FB3E4;}
	.st183{fill:#73CBEF;}
	.st184{fill:#00ADE1;}
	.st185{fill:#00A0DA;}
	.st186{fill:#009DD8;}
	.st187{fill:#01B1E3;}
	.st188{fill:#14B0E2;}
	.st189{fill:#009ED7;}
	.st190{fill:#0084C6;}
	.st191{fill:#0082C4;}
	.st192{fill:#25B5E5;}
	.st193{fill:#0091CF;}
	.st194{fill:#0075BB;}
	.st195{fill:#009BD5;}
	.st196{fill:#0098D3;}
	.st197{fill:#006CB5;}
	.st198{fill:#5CC2EB;}
	.st199{fill:#3CBCE9;}
	.st200{fill:#61C4EC;}
	.st201{fill:#0090CF;}
	.st202{fill:#44BDEA;}
	.st203{fill:#005CA6;}
	.st204{fill:#5BC3EC;}
	.st205{fill:#0073BA;}
	.st206{fill:#006BB3;}
	.st207{fill:#0058A3;}
	.st208{fill:#0057A3;}
	.st209{fill:#0092CF;}
	.st210{fill:#00529F;}
	.st211{fill:#006AB2;}
	.st212{fill:#0072BA;}
	.st213{fill:#0056A1;}
	.st214{fill:#0080C4;}
	.st215{fill:#007CBF;}
	.st216{fill:#005DA7;}
	.st217{fill:#0062AC;}
	.st218{fill:#0070B7;}
	.st219{fill:#0079BD;}
	.st220{fill:#0072B8;}
	.st221{fill:#007ABE;}
	.st222{clip-path:url(#SVGID_00000155122355737580443660000009137629421189414049_);}
	.st223{fill:#007BC0;}
	.st224{fill:#0078BE;}
	.st225{fill:#0087C9;}
	.st226{fill:#0089C9;}
	.st227{fill:#0088C8;}
	.st228{fill:#0095D1;}
	.st229{fill:#00A3DC;}
	.st230{clip-path:url(#SVGID_00000060012747383708706300000004752743586903866551_);}
	.st231{fill:#49A7E2;}
	.st232{fill:#E31936;}
</style>
<g>
	<g>
		<path d="M467.37,120.01c2.19,1.38,4.38,2.47,6.22,3.99c4.65,3.84,7.04,8.83,7.2,14.93c0.09,3.53-0.86,6.85-1.56,10.23
			c-2.14,10.33-4.35,20.64-6.55,30.95c-2.15,10.09-4.32,20.17-6.47,30.26c-3,14.09-6.04,28.17-8.96,42.28
			c-2.21,10.67-12.91,18.19-24.51,15.61c-0.78-0.17-1.57-0.33-2.41-0.51c-2.75,2.39-5.73,4.45-9.06,5.99
			c-4.51,2.09-9.2,3.32-14.19,3.32c-123.59,0-247.18,0-370.78,0c-3.64,0-7.13-0.59-10.28-2.5c-4.24-2.56-6.74-6.36-7.84-11.14
			c-0.83-3.6-0.74-7.19,0.03-10.79c2.55-12.01,5.1-24.01,7.66-36.02c2.21-10.37,4.43-20.74,6.64-31.11c0.11-0.5,0.18-1,0.28-1.52
			c-1.26-0.63-2.48-1.15-3.6-1.82c-5.88-3.51-9.22-8.64-10.08-15.48c-0.4-3.2,0.35-6.18,0.98-9.21c2.12-10.16,4.29-20.3,6.45-30.44
			c2.14-10.03,4.29-20.06,6.42-30.1c2.12-9.98,4.22-19.96,6.33-29.94c1.07-5.07,2.09-10.16,3.24-15.22
			c1.91-8.36,7.04-13.69,15.34-15.89c1.32-0.35,2.73-0.4,4.1-0.52c0.79-0.07,1.6-0.01,2.52-0.01c0.65-3.03,1.31-5.94,1.89-8.86
			c0.7-3.52,1.58-6.95,3.34-10.13c3.18-5.73,7.71-9.99,13.52-12.97c4.52-2.32,9.34-3.2,14.37-3.2c122.78,0,245.57,0,368.35,0.01
			c3.29,0,6.55,0.22,9.68,1.46c7.4,2.92,12.08,9.62,12.43,17.6c0.14,3.29-0.65,6.4-1.32,9.54c-2.59,12.29-5.22,24.58-7.83,36.87
			c-2.09,9.81-4.18,19.62-6.28,29.42c-1.7,7.95-3.41,15.89-5.11,23.84C467.44,119.37,467.4,119.82,467.37,120.01z M308.7,218.89
			c21.41,5.29,42.81,10.57,64.2,15.85c-0.04,0.81,0.02,1.4-0.12,1.95c-0.44,1.75-0.1,3.46,0.33,5.12
			c1.56,6.06,5.44,9.92,11.47,11.53c2.67,0.71,5.4,1.19,8.11,1.76c13.7,2.89,27.41,5.75,41.1,8.66c8.03,1.71,15.76-2.49,18.39-10.13
			c0.54-1.57,0.82-3.24,1.17-4.87c2.18-10.2,4.34-20.41,6.51-30.61c1.62-7.61,3.24-15.22,4.85-22.83
			c1.95-9.19,3.91-18.38,5.85-27.57c1.8-8.52,3.64-17.02,5.35-25.55c1.61-8.01-3.45-15.83-11.39-17.84
			c-0.82-0.21-1.63-0.44-2.54-0.69c0.79-3.68,1.54-7.22,2.3-10.76c2.56-12.01,5.14-24.01,7.69-36.02
			c3.45-16.18,6.91-32.35,10.29-48.54c0.64-3.05,1.66-6.04,1.31-9.29c-0.33-3.13-1.16-6-3.09-8.49c-3.22-4.13-7.6-5.85-12.72-5.85
			c-124,0-248.01,0-372.01-0.01c-2.87,0-5.61,0.55-8.27,1.59c-4.34,1.71-7.98,4.4-10.99,7.92c-2.51,2.93-4.27,6.28-5.06,10.1
			c-0.98,4.74-2.02,9.47-3.04,14.2c-0.15,0.71-0.36,1.4-0.55,2.15c-0.66-0.11-1.17-0.18-1.68-0.27c-1.81-0.32-3.59-0.53-5.46-0.36
			c-5.83,0.52-11.92,5.07-13.43,11.77c-0.52,2.31-0.98,4.62-1.47,6.93c-2.14,10.03-4.3,20.06-6.42,30.1
			c-2.5,11.78-4.97,23.57-7.46,35.36c-2.65,12.52-5.33,25.03-7.95,37.55c-1.7,8.16,3.6,16.31,11.72,18.1
			c5.57,1.22,11.16,2.37,16.74,3.55c10.71,2.27,21.43,4.5,32.13,6.81c9.11,1.97,17.08-3.48,18.98-11.39c0.05-0.21,0.2-0.4,0.37-0.74
			c21.66,3.79,43.32,7.58,65.03,11.37c0.14,0.39,0.3,0.76,0.41,1.14c0.56,1.94,1.06,3.9,1.68,5.81c1.01,3.1,3.12,5.06,6.34,5.74
			c6.65,1.4,13.31,2.79,19.96,4.2c14.83,3.12,29.66,6.25,44.48,9.38c9.75,2.06,19.5,4.13,29.26,6.18c8.35,1.76,16.69,3.5,25.04,5.23
			c3.31,0.68,6-0.45,8.16-2.96C305.74,222.47,307.16,220.74,308.7,218.89z"/>
		<path d="M94.29,337.19c-7.4,0-14.72,0-22.32,0c-5.09-9.42-10.25-18.97-15.42-28.53c-0.11,0.01-0.23,0.03-0.34,0.04
			c-2.04,9.5-4.07,19-6.11,28.52c-6.43,0-12.71,0-19.22,0c0.65-4.38,1.77-8.58,2.63-12.84c0.86-4.24,1.8-8.45,2.71-12.68
			c0.92-4.28,1.83-8.56,2.75-12.85c0.9-4.21,1.8-8.43,2.7-12.7c7.8,0,15.47,0,23.21,0c4.82,9.42,9.65,18.85,14.47,28.28
			c0.13-0.01,0.26-0.02,0.4-0.03c2.13-9.38,3.99-18.83,6.11-28.25c6.45,0,12.78,0,19.32,0C101.54,303.24,97.92,320.18,94.29,337.19z
			"/>
		<path d="M104.4,337.29c3.68-17.21,7.29-34.14,10.94-51.21c0.76,0,1.38,0,2.01,0c13.17,0,26.33-0.04,39.5,0.03
			c3.52,0.02,7.01,0.49,10.36,1.66c3.3,1.16,6.09,3.01,7.87,6.13c1.16,2.03,1.72,4.24,1.97,6.57c0.33,2.95,0.01,5.85-0.46,8.75
			c-0.69,4.23-1.81,8.33-3.66,12.21c-4.11,8.62-10.97,13.62-20.32,15.2c-2.54,0.43-5.15,0.62-7.73,0.64
			c-12.7,0.06-25.41,0.03-38.12,0.03C106.08,337.29,105.39,337.29,104.4,337.29z M127.38,324.41c0.41,0.07,0.69,0.15,0.97,0.15
			c4.33-0.03,8.67,0.1,12.98-0.15c5.66-0.33,10.05-2.89,12.32-8.32c1.51-3.6,2.45-7.33,1.54-11.28c-0.41-1.75-1.36-3.15-2.89-4.14
			c-2.01-1.3-4.26-1.72-6.59-1.75c-3.75-0.06-7.5-0.02-11.26-0.01c-0.51,0-1.01,0.06-1.64,0.09
			C130.99,307.5,129.19,315.92,127.38,324.41z"/>
		<path d="M435.57,312.14c3.8,1.85,4.53,4.91,3.99,8.29c-0.55,3.47-0.96,6.96-1.44,10.44c-0.24,1.8-0.1,3.57,0.56,5.28
			c0.12,0.31,0.2,0.64,0.33,1.07c-7.27,0-14.41,0-21.76,0c-0.03-0.58-0.15-1.19-0.08-1.77c0.3-2.46,0.69-4.9,0.99-7.36
			c0.13-1.03,0.22-2.08,0.16-3.1c-0.11-1.91-1.03-2.9-2.92-3.31c-0.45-0.1-0.9-0.2-1.36-0.21c-4.51-0.01-9.01-0.01-13.52,0
			c-0.23,0-0.45,0.05-0.89,0.1c-1.11,5.14-2.22,10.3-3.33,15.45c-1.23,0.34-17.84,0.44-20.22,0.09
			c3.62-16.95,7.23-33.88,10.86-50.89c0.53-0.05,0.97-0.13,1.41-0.13c14.73-0.01,29.47-0.04,44.2,0.03
			c2.16,0.01,4.35,0.41,6.48,0.87c4.2,0.9,6.27,3.87,7.02,7.87c1.19,6.39-2.63,14.62-9.68,16.89
			C436.17,311.81,435.97,311.94,435.57,312.14z M402.41,308.48c0.4,0.07,0.57,0.13,0.73,0.13c4.97,0.01,9.93,0.06,14.9-0.01
			c3.19-0.04,5.4-2.21,5.73-5.38c0.26-2.5-0.55-3.63-3.04-4.16c-0.5-0.11-1.03-0.15-1.54-0.15c-4.45-0.01-8.89-0.01-13.34,0
			c-0.44,0-0.89,0.08-1.42,0.13C403.76,302.21,403.1,305.29,402.41,308.48z"/>
		<path d="M285.91,317.58c7.47,0,14.91,0,22.51,0c-0.12,0.45-0.18,0.83-0.33,1.17c-1.72,3.94-3.78,7.62-6.82,10.75
			c-3.31,3.41-7.27,5.65-11.71,7.13c-3.73,1.24-7.59,1.99-11.52,2.14c-4.72,0.17-9.45,0.35-14.17,0.2
			c-4.5-0.14-8.93-0.89-13.14-2.66c-6.82-2.88-10.48-8.09-10.65-15.4c-0.22-9.27,2.25-17.8,8.27-25.07
			c2.89-3.49,6.51-6.01,10.64-7.81c4.87-2.12,9.97-3.22,15.26-3.43c4.14-0.16,8.3-0.34,12.44-0.2c4.55,0.15,9.07,0.74,13.36,2.47
			c7.33,2.95,11.04,8.35,11.15,16.29c0.01,0.91-0.06,1.81-0.09,2.82c-7.62,0-15.04,0-22.63,0c-0.08-0.51-0.18-1.06-0.24-1.61
			c-0.52-4.11-2.57-6.51-6.62-7.07c-5.11-0.7-9.92,0.21-13.86,3.84c-2.31,2.12-3.68,4.86-4.6,7.82c-0.86,2.77-1.38,5.59-1.29,8.51
			c0.15,5.05,2.99,8.21,8.01,8.74c4.26,0.45,8.28-0.18,11.74-3c1.65-1.34,2.78-3.06,3.83-4.87
			C285.58,318.09,285.74,317.85,285.91,317.58z"/>
		<path d="M337.32,286.16c8.39,0,16.59,0,24.96,0c3.63,16.97,7.25,33.91,10.91,51c-7.19,0-14.2,0-21.45,0
			c-0.31-1.81-0.63-3.71-0.96-5.68c-0.6-0.03-1.11-0.08-1.62-0.08c-6.07-0.01-12.14,0.03-18.2-0.03c-1.15-0.01-1.78,0.35-2.29,1.35
			c-0.79,1.54-1.72,2.99-2.6,4.49c-7.09,0-14.11,0-21.45,0C315.6,320.06,326.46,303.12,337.32,286.16z M349.01,318.94
			c-0.8-5.87-1.56-11.52-2.33-17.17c-0.13-0.01-0.26-0.03-0.39-0.04c-3.23,5.66-6.46,11.32-9.64,17.22
			C340.9,318.94,344.85,318.94,349.01,318.94z"/>
		<path d="M193.01,337.09c0.86-4.08,1.63-8.04,2.55-11.95c0.36-1.53,0.22-2.84-0.39-4.3c-3.83-9.27-7.57-18.58-11.33-27.88
			c-0.88-2.18-1.78-4.36-2.68-6.55c1.32-0.39,20.26-0.51,22.99-0.16c1.8,6.53,3.61,13.13,5.49,19.96c0.44-0.54,0.77-0.89,1.05-1.29
			c4.11-5.86,8.21-11.72,12.31-17.58c0.5-0.72,0.96-1.29,2.04-1.28c6.93,0.06,13.86,0.03,20.79,0.03c0.21,0,0.43,0.05,0.85,0.1
			c-0.36,0.53-0.61,0.96-0.92,1.33c-9.52,11.42-19.04,22.85-28.59,34.25c-0.79,0.94-1.12,1.96-1.36,3.1
			c-0.85,4.06-1.73,8.11-2.59,12.12C211.96,337.35,195.2,337.45,193.01,337.09z"/>
		<path d="M20.42,337.19c-6.82,0-13.44,0-20.22,0c3.64-17.07,7.26-34,10.89-51c6.75,0,13.37,0,20.22,0
			C27.67,303.2,24.06,320.13,20.42,337.19z"/>
		<path d="M105.22,171.04c0.62-2.85,1.18-5.47,1.77-8.17c4.21,1.13,8.21,2.2,12.21,3.28c14.07,3.79,28.14,7.57,42.21,11.36
			c1.06,0.28,2.1,0.63,3.17,0.83c1.12,0.2,1.73,0.79,1.86,1.91c0.05,0.43,0.17,0.86,0.31,1.55
			C146.17,178.2,125.79,174.64,105.22,171.04z"/>
		<path d="M376.25,219.68c-0.57,2.69-1.13,5.32-1.72,8.08c-20.23-5-40.29-9.95-60.62-14.97c0.62-0.8,1.04-1.54,1.65-2.06
			c0.31-0.27,0.96-0.3,1.43-0.23c3.93,0.57,7.85,1.18,11.77,1.79c5.74,0.89,11.48,1.78,17.22,2.66c7.16,1.1,14.33,2.2,21.49,3.3
			c2.56,0.39,5.12,0.77,7.68,1.17C375.48,219.46,375.8,219.57,376.25,219.68z"/>
	</g>
	<g>
		<g>
			<path class="st232" d="M461.99,123.66c-2.23-0.46-4.34-1.03-6.43-1.47c-13.61-2.85-27.2-5.78-40.83-8.54
				c-8.34-1.69-16.67,3.74-18.45,12.07c-1.32,6.16-2.61,12.32-3.92,18.48c-0.07,0.33-0.2,0.65-0.29,0.96
				c-1.32,0.09-42.58-10.06-46.1-11.34c0.63-3.98,1.61-7.93,2.48-12.07c1.48,0.28,2.82,0.52,4.16,0.81
				c2.49,0.52,4.97,1.08,7.45,1.61c0.34,0.07,0.68,0.13,1.03,0.15c1.36,0.09,2.09-0.35,2.41-1.7c0.69-2.92,1.34-5.86,1.9-8.81
				c0.28-1.47-0.28-2.23-1.86-2.6c-3.04-0.71-6.09-1.33-9.14-1.98c-5.93-1.26-11.86-2.51-17.79-3.76c-2.13-0.45-2.98,0.07-3.47,2.24
				c-0.58,2.59-1.1,5.2-1.64,7.8c-0.27,1.33,0.55,2.63,1.87,2.98c1.36,0.35,2.76,0.6,4.13,0.9c0.56,0.12,1.11,0.27,1.84,0.45
				c-0.82,3.9-1.63,7.72-2.45,11.62c-0.42-0.02-0.76,0.01-1.07-0.06c-2.65-0.61-5.21-1.54-7.87-2.09
				c-6.69-1.38-11.36-5.38-14.83-10.89c-3.1-4.94-5.1-10.35-6.71-15.92c-1.74-5.99-3.47-11.99-5.2-17.98
				c-0.1-0.33-0.17-0.66-0.25-0.96c0.08-0.1,0.11-0.15,0.15-0.18c0.04-0.03,0.1-0.08,0.15-0.08c0.29,0.02,0.58,0.03,0.86,0.09
				c27.4,5.78,54.8,11.56,82.43,17.4c-1.92,9.07-3.8,18.02-5.73,27.15c1.12,0.23,2.05,0.43,3.17,0.66
				c4.35-20.51,8.66-40.83,12.99-61.22c-0.88-0.21-1.6-0.39-2.33-0.55c-0.21-0.05-0.45-0.01-0.85-0.01
				c-1.02,4.74-2.04,9.46-3.1,14.35c-1.7-0.33-3.28-0.6-4.85-0.93c-12.77-2.7-25.54-5.42-38.31-8.11
				c-15.77-3.32-31.55-6.62-47.32-9.93c-0.9-0.19-1.8-0.45-2.71-0.58c-0.82-0.12-1.15-0.54-1.35-1.32
				c-0.57-2.24-1.14-4.48-1.88-6.66c-2.91-8.61-9.09-13.56-17.77-15.58c-4.1-0.96-8.24-1.06-12.35,0.02
				c-5.11,1.35-9.13,4.34-12.45,8.36c-1.28,1.55-2.53,3.13-3.81,4.72c-31.38-6.61-62.67-13.2-94.18-19.84
				c1.02-4.89,2.01-9.61,3.04-14.53l-2.82-0.68c-0.71,1.28-12.59,56.39-13.22,61.21l2.99,0.72c2.1-9,3.82-17.99,5.87-27.17
				c13.95,2.89,27.81,5.85,41.68,8.76c13.89,2.92,27.79,5.85,41.87,8.82c-0.36,0.53-0.59,0.97-0.91,1.34
				c-4.24,5.04-8.46,10.1-12.76,15.09c-3.71,4.3-7.69,8.33-12.53,11.4c-2.76,1.75-5.69,3.12-8.93,3.63
				c-1.53,0.24-3.11,0.26-4.67,0.22c-4.22-0.11-8.31-1.15-12.66-1.84c0.84-3.97,1.64-7.79,2.49-11.8c1.36,0.25,2.58,0.47,3.81,0.71
				c0.74,0.15,1.46,0.37,2.2,0.49c1.7,0.28,2.53-0.25,2.91-1.91c0.61-2.7,1.2-5.41,1.73-8.14c0.38-1.96-0.21-2.77-2.2-3.19
				c-8.76-1.85-17.51-3.69-26.27-5.53c-0.39-0.08-0.8-0.13-1.2-0.15c-1.3-0.05-2.02,0.38-2.3,1.62c-0.66,2.87-1.3,5.75-1.83,8.65
				c-0.24,1.3,0.6,2.56,1.89,2.85c3.67,0.83,7.36,1.58,11.04,2.37c0.33,0.07,0.65,0.17,1.15,0.31c-0.85,4.05-1.7,8.03-2.57,12.16
				c-15.69-2.69-31.2-5.35-46.83-8.03c0.07-0.66,0.07-1.17,0.17-1.66c1.23-5.82,2.46-11.64,3.73-17.46
				c2.14-9.79-3.97-17.73-12.82-19.49c-10.88-2.15-21.7-4.54-32.55-6.83c-4.01-0.84-7.78-1.5-11.8-2.34
				c-0.38-0.08-1.06-0.15-1.58-0.3c0.33-1.59,0.7-3.35,1.03-4.86c0.79-3.67,1.59-7.34,2.37-11.01c1.68-7.9,6.45-13.41,13.38-17.22
				c3.67-2.02,7.61-2.86,11.82-2.86c123.8,0.03,247.6,0.03,371.4,0.02c3.32,0,6.42,0.68,9.23,2.51c4.19,2.73,6.14,6.71,6.63,11.59
				c0.29,2.9-0.55,5.62-1.13,8.37c-3.38,16.05-6.82,32.09-10.25,48.14c-2.37,11.13-4.74,22.26-7.12,33.39
				c-0.99,4.63-1.98,9.26-2.97,13.89C462.18,122.84,462.1,123.21,461.99,123.66z"/>
			<path class="st232" d="M283.3,59.01c-8.8-1.85-17.41-3.67-26.27-5.54c2.43-3.3,4.7-6.44,8.75-7.39
				c6.01-1.41,14.42,0.72,16.66,8.68c0.3,1.05,0.59,2.11,0.85,3.17C283.36,58.23,283.3,58.55,283.3,59.01z"/>
		</g>
	</g>
</g>
</svg>
