<svg xmlns="http://www.w3.org/2000/svg" width="77.728" height="28" viewBox="0 0 77.728 28">
  <g id="logos_usat" data-name="logos/usat" transform="translate(-4)">
    <g id="logo-default_copy" data-name="logo-default copy" transform="translate(4)">
      <path id="Shape" d="M4.151,7.32a1.523,1.523,0,0,0,1.177-.45,1.824,1.824,0,0,0,.379-1.3V0H8.23V5.57A3.706,3.706,0,0,1,7.143,8.42a4.27,4.27,0,0,1-2.991,1,4.26,4.26,0,0,1-2.991-1A3.705,3.705,0,0,1,0,5.57V0H2.526V5.57a1.813,1.813,0,0,0,.419,1.28A1.513,1.513,0,0,0,4.151,7.32Z" transform="translate(31.746 3.43)"/>
      <path id="Shape-2" data-name="Shape" d="M3.929,9.581a6.057,6.057,0,0,1-2.134-.39A5.243,5.243,0,0,1,0,8.081l1.217-1.54a4.157,4.157,0,0,0,1.217.77,3.869,3.869,0,0,0,1.5.28,1.631,1.631,0,0,0,.858-.19.63.63,0,0,0,.309-.57.67.67,0,0,0-.369-.59,5.326,5.326,0,0,0-1.3-.52l-.568-.15a3.985,3.985,0,0,1-1.895-1,2.354,2.354,0,0,1-.648-1.71A2.655,2.655,0,0,1,.8,1.361a2.993,2.993,0,0,1,1.276-1A4.615,4.615,0,0,1,3.959,0a5.351,5.351,0,0,1,1.994.39,5.8,5.8,0,0,1,1.705,1.03L6.4,3.011a5.054,5.054,0,0,0-1.147-.73,2.984,2.984,0,0,0-1.306-.31,1.572,1.572,0,0,0-.838.18.6.6,0,0,0-.319.57.7.7,0,0,0,.309.56,3.136,3.136,0,0,0,1.077.44l.688.19a4.234,4.234,0,0,1,2.1,1.12,2.424,2.424,0,0,1,.618,1.65,2.655,2.655,0,0,1-.459,1.54,2.993,2.993,0,0,1-1.286,1,4.7,4.7,0,0,1-1.915.36Z" transform="translate(41.083 3.279)"/>
      <path id="Path" d="M7.11,9.2,6.521,7.52H3.071L2.493,9.25H0L3.38,0H6.312l3.33,9.2Z" transform="translate(49.189 3.48)"/>
      <path id="Path-2" data-name="Path" d="M0,3.24H2.184L1.147,0Z" transform="translate(52.849 5.84)" fill="#fff"/>
      <path id="Shape-3" data-name="Shape" d="M2.742,9.21V2H0V0H7.977V2H5.265V9.21Z" transform="translate(31.749 15.32)"/>
      <path id="Path-3" data-name="Path" d="M4.777,9.582a4.895,4.895,0,0,1-2.463-.61,4.484,4.484,0,0,1-1.685-1.7A4.881,4.881,0,0,1,0,4.792,5.163,5.163,0,0,1,.34,2.872a4.481,4.481,0,0,1,1-1.52,4.6,4.6,0,0,1,1.516-1,5.35,5.35,0,0,1,3.819,0,4.606,4.606,0,0,1,1.516,1,4.471,4.471,0,0,1,1,1.52A5.142,5.142,0,0,1,9.6,4.792a4.881,4.881,0,0,1-.618,2.48A4.483,4.483,0,0,1,7.28,8.962a4.895,4.895,0,0,1-2.5.62Z" transform="translate(40.254 15.128)"/>
      <path id="Path-4" data-name="Path" d="M2.234,5.459a1.99,1.99,0,0,0,1.157-.34,2.3,2.3,0,0,0,.778-.95,3.268,3.268,0,0,0,.289-1.41,3.318,3.318,0,0,0-.289-1.41,2.349,2.349,0,0,0-.778-1,2.109,2.109,0,0,0-2.323,0,2.349,2.349,0,0,0-.778,1A3.318,3.318,0,0,0,0,2.759,3.268,3.268,0,0,0,.29,4.169a2.3,2.3,0,0,0,.778.95,1.99,1.99,0,0,0,1.167.33Z" transform="translate(42.797 17.161)" fill="#fff"/>
      <path id="Path-5" data-name="Path" d="M0,9.251V0H3.64a4.855,4.855,0,0,1,2.423.59,4.3,4.3,0,0,1,1.645,1.63,5.133,5.133,0,0,1,0,4.8,4.3,4.3,0,0,1-1.645,1.63,4.855,4.855,0,0,1-2.423.59Z" transform="translate(51.264 15.279)"/>
      <path id="Path-6" data-name="Path" d="M0,5.241H1.157a1.9,1.9,0,0,0,1.566-.72,3.006,3.006,0,0,0,.578-1.9,3.006,3.006,0,0,0-.578-1.9A1.9,1.9,0,0,0,1.157,0H0Z" transform="translate(53.746 17.289)" fill="#fff"/>
      <path id="Path-7" data-name="Path" d="M7.11,9.25,6.531,7.52H3.071L2.493,9.25H0L3.38,0H6.312l3.38,9.25Z" transform="translate(59.899 15.28)"/>
      <path id="Path-8" data-name="Path" d="M0,3.24H2.2L1.117,0Z" transform="translate(63.608 17.69)" fill="#fff"/>
      <path id="Shape-4" data-name="Shape" d="M5.833,5.92V9.25H3.271V5.92L0,0H2.852L4.557,3.72,6.252.05H9.1Z" transform="translate(68.624 15.28)"/>
      <ellipse id="Oval" cx="13.96" cy="14" rx="13.96" ry="14" fill="#0098fe"/>
    </g>
  </g>
</svg>
