<?xml version="1.0" encoding="UTF-8"?><svg id="Layer_2" xmlns="http://www.w3.org/2000/svg" xmlns:xlink="http://www.w3.org/1999/xlink" viewBox="0 0 391.26 338.37"><defs><style>.cls-1{fill:#e57c25;}.cls-2{fill:#fff;}.cls-3{fill:#cc6c28;}.cls-4{fill:#d6d5e2;}.cls-5{fill:#363742;}.cls-6{fill:#478fcc;}.cls-7{fill:#71727d;}.cls-8{fill:#aeadb7;stroke:#65666e;stroke-width:10px;}.cls-8,.cls-9,.cls-10,.cls-11{stroke-miterlimit:10;}.cls-9{fill:#cacad0;}.cls-9,.cls-10{stroke-width:4px;}.cls-9,.cls-10,.cls-11{stroke:#70717c;}.cls-10{fill:none;}.cls-11{fill:url(#linear-gradient);stroke-width:3px;}</style><linearGradient id="linear-gradient" x1="196.94" y1="4553.32" x2="196.94" y2="4217.92" gradientTransform="translate(0 4554.82) scale(1 -1)" gradientUnits="userSpaceOnUse"><stop offset=".47" stop-color="#009ed3"/><stop offset=".84" stop-color="#1c618f"/></linearGradient></defs><g id="Layer_1-2"><g><path class="cls-11" d="M195.71,336.9c-106.26-22.5-127.53-129.12-127.53-129.12l13.13-173.15S107.21,6.5,197.79,1.5h0c90.58,5,114.79,33.13,114.79,33.13l13.13,173.15s-23.74,106.62-130,129.12"/><path class="cls-1" d="M258.21,267.09c0,34.56-28.02,62.58-62.58,62.58s-62.58-28.02-62.58-62.58c0-23.76,13.24-44.43,32.75-55.03,8.87-4.82,19.03-7.55,29.83-7.55,34.56,0,62.58,28.02,62.58,62.58Z"/><path class="cls-3" d="M132.19,265.33s61.92,53.83,124.97,2.39l-3.34,17.79s-34.5,31.93-59.7,33.66c0,0-64.15-12.39-61.92-53.83h-.01Z"/><path class="cls-10" d="M134.48,254.23s59.2-47.21,123.67,0"/><path class="cls-10" d="M166.29,210.06s43.12,21.37-21.19,91.27"/><path class="cls-10" d="M226.75,210.06s-43.12,21.37,21.19,91.27"/><polygon class="cls-7" points="68.15 193.3 0 186.62 68.75 179.62 68.15 193.3"/><path class="cls-7" d="M326.17,193.64l64.96-6.83c.17-.02,.17-.27,0-.29l-66.65-6.27,1.7,13.39h-.01Z"/><path class="cls-10" d="M259.06,265.09c0,34.56-28.02,62.58-62.58,62.58s-62.58-28.02-62.58-62.58c0-23.76,13.24-44.43,32.75-55.03,8.87-4.82,19.03-7.55,29.83-7.55,34.56,0,62.58,28.02,62.58,62.58Z"/><path class="cls-9" d="M309.98,36.87s-24.09-26.94-112.62-31.81h0c-88.53,4.87-113.87,31.77-113.87,31.77l-13.05,171.92s22.42,105.3,126.28,127.2c103.86-21.9,126.24-127.19,126.24-127.19l-12.97-171.89h0Zm-113.28,271.17c-85.94-19.33-102.18-103.52-102.18-103.52l8.66-156.37s20.27-19.79,93.53-24.09h0c73.26,4.3,93.52,24.09,93.52,24.09l9.22,154.37s-16.81,86.19-102.75,105.52h0Z"/><g><path class="cls-8" d="M6,181.1c4.77-28,9.79-55.96,15.05-83.87,116.54-9.06,233.2-9.05,349.73,.05,5.06,27.9,9.89,55.84,14.49,83.83-126.32-11.13-252.94-11.13-379.27,0h0Z"/><g><g><path class="cls-4" d="M383,180.67c-125.53-10.93-251.34-10.86-376.87,.19,4.37-27.96,8.96-55.88,13.79-83.77,116.54-9.12,233.2-9.17,349.75-.13,4.67,27.87,9.11,55.77,13.33,83.71h0Z"/><g><path class="cls-5" d="M41.94,152.44c-3.72,.27-7.2-.09-10.42-1.1-3.21-1.01-5.89-2.59-8.03-4.76,2.84-3.23,4.27-4.84,7.13-8.06,1.53,1.47,3.34,2.58,5.43,3.33,2.09,.75,4.47,1.02,7.14,.83,1.78-.13,3.22-.54,4.33-1.23,1.1-.69,1.74-1.67,1.9-2.91,.16-1.2-.31-2.13-1.41-2.78-1.09-.65-3.09-1.28-5.98-1.86-1.07-.21-1.6-.32-2.67-.53-3.9-.77-6.74-2.18-8.51-4.22-1.76-2.04-2.38-4.77-1.85-8.17,.46-2.91,1.6-5.51,3.41-7.81,1.81-2.3,4.1-4.14,6.86-5.51s5.83-2.17,9.23-2.41c3.35-.23,6.47,.2,9.35,1.27,2.89,1.07,5.39,2.63,7.49,4.66-2.83,3.27-4.25,4.91-7.06,8.18-1.39-1.28-3.07-2.36-5.04-3.25-1.97-.88-3.99-1.25-6.07-1.11-1.73,.12-3.11,.52-4.13,1.18-1.02,.67-1.62,1.58-1.79,2.74-.16,1.07,.2,1.96,1.07,2.67s2.46,1.31,4.77,1.82c1.29,.28,1.93,.42,3.22,.7,4.64,1.01,7.81,2.62,9.52,4.8,1.71,2.18,2.39,4.81,2.01,7.88-.35,2.89-1.4,5.46-3.16,7.71s-4.08,4.08-6.96,5.46c-2.89,1.39-6.15,2.21-9.78,2.48h0Z"/><path class="cls-5" d="M88.17,139.32c2.49-.13,4.49-.95,5.97-2.48,1.49-1.52,2.35-3.64,2.6-6.34,1-10.92,1.51-16.37,2.56-27.29,4.8-.21,7.21-.32,12.01-.5-.91,10.88-1.36,16.31-2.24,27.19-.48,5.97-2.62,10.67-6.41,14.09-3.81,3.43-8.99,5.3-15.49,5.63-6.51,.34-11.37-1.02-14.54-4.1-3.15-3.06-4.39-7.61-3.69-13.61,1.28-10.93,1.93-16.39,3.25-27.31,4.8-.28,7.2-.41,12-.66-1.2,10.93-1.79,16.4-2.95,27.34-.29,2.71,.17,4.75,1.37,6.14,1.2,1.39,3.05,2.02,5.55,1.89h0Z"/><path class="cls-5" d="M129.9,132.06c-.37,5.98-.55,8.98-.91,14.96-4.85,.15-7.27,.24-12.12,.42,1.07-15.02,2.17-30.04,3.29-45.06,7.75-.27,11.63-.39,19.38-.59,5.17-.13,9.2,1.14,12.09,3.78,2.91,2.65,4.28,6.31,4.1,10.98-.12,3.04-.9,5.68-2.36,7.91-1.45,2.23-3.45,3.99-5.98,5.28,3.47,6.63,5.19,9.95,8.6,16.6-5.33,.1-8,.16-13.33,.29-2.69-5.9-4.05-8.85-6.78-14.75-2.39,.07-3.59,.1-5.98,.18Zm.58-9.33c2.63-.08,3.95-.12,6.59-.19,1.89-.05,3.41-.59,4.56-1.61,1.15-1.02,1.76-2.39,1.85-4.11,.08-1.63-.4-2.93-1.43-3.9-1.03-.96-2.49-1.42-4.35-1.37-2.61,.07-3.91,.11-6.52,.19-.28,4.4-.42,6.59-.69,10.99h-.01Z"/><path class="cls-5" d="M202.17,101.5c-5.58,14.93-11.03,29.91-16.39,44.92-5.47,.03-8.21,.05-13.68,.11-4.85-14.93-9.81-29.83-14.86-44.7,5.04-.09,7.56-.13,12.6-.19,3.17,10.4,6.31,20.8,9.42,31.21,3.57-10.47,7.18-20.92,10.81-31.36,4.84-.01,7.25-.01,12.09,0h0Z"/><path class="cls-5" d="M223.27,146.15c-5.01-.07-7.52-.09-12.53-.13-.17-14.97-.35-29.94-.53-44.91,4.81,.03,7.21,.06,12.02,.11,.35,14.98,.7,29.95,1.04,44.93h0Z"/><path class="cls-5" d="M272.88,102.45c-4.52,14.81-8.98,29.64-13.38,44.49-5.47-.17-8.2-.24-13.67-.37-5.82-15.14-11.78-30.22-17.85-45.26,5.04,.08,7.56,.12,12.6,.23,3.88,10.52,7.72,21.04,11.52,31.59,2.87-10.36,5.77-20.72,8.69-31.07,4.83,.15,7.25,.23,12.08,.4h0Z"/><path class="cls-5" d="M301.92,149.51c-4.58-.23-8.74-1.42-12.46-3.57-3.71-2.14-6.73-5.02-9.04-8.61-2.3-3.58-3.61-7.66-3.94-12.21-.25-3.45,.09-6.58,1.01-9.38,.92-2.8,2.34-5.22,4.25-7.24,1.9-2.01,4.19-3.54,6.84-4.57s5.63-1.47,8.94-1.31,6.4,.89,9.28,2.18c2.88,1.3,5.48,3.06,7.78,5.28,2.31,2.22,4.2,4.81,5.66,7.73,1.46,2.93,2.4,6.13,2.79,9.59,.52,4.57-.03,8.58-1.68,11.97-1.65,3.4-4.17,6.01-7.52,7.8-3.36,1.8-7.34,2.57-11.92,2.34h.01Zm-.93-10.23c2.18,.11,4.03-.35,5.55-1.37,1.51-1.02,2.64-2.5,3.36-4.42,.73-1.92,.96-4.19,.68-6.81-.27-2.62-.97-4.95-2.1-6.99-1.12-2.04-2.54-3.67-4.24-4.88s-3.61-1.87-5.74-1.97c-2.13-.1-3.93,.38-5.42,1.43-1.49,1.06-2.6,2.56-3.35,4.51-.75,1.95-1.01,4.23-.79,6.84,.22,2.61,.87,4.92,1.97,6.93,1.09,2.01,2.5,3.61,4.22,4.79s3.67,1.83,5.85,1.94h.01Z"/><path class="cls-5" d="M343.21,136.18c.79,6.04,1.18,9.06,1.95,15.1-4.84-.34-7.26-.51-12.1-.83-1.79-15.12-3.62-30.24-5.5-45.35,7.74,.48,11.61,.73,19.35,1.27,5.16,.36,9.46,2.05,12.89,5.02,3.44,2.98,5.55,6.85,6.29,11.59,.48,3.09,.21,5.7-.81,7.82-1.02,2.13-2.68,3.72-4.97,4.78,4.76,7.1,7.12,10.66,11.79,17.78-5.32-.45-7.98-.66-13.3-1.07-3.82-6.28-5.74-9.42-9.62-15.69-2.39-.17-3.58-.26-5.97-.42Zm-1.24-9.42c2.63,.18,3.95,.27,6.58,.46,1.88,.14,3.31-.26,4.26-1.18,.95-.92,1.3-2.25,1.05-3.99-.24-1.65-.98-3.02-2.21-4.1s-2.78-1.69-4.64-1.82c-2.6-.18-3.91-.27-6.51-.45,.6,4.44,.89,6.65,1.48,11.09h0Z"/></g></g><path class="cls-4" d="M252.4,187.64c-36.7-.9-73.37-.93-110.07-.09,.41-9.28,.62-13.92,1.04-23.2,36.01-.79,71.99-.76,108,.09,.42,9.28,.62,13.92,1.03,23.2Z"/><g><path class="cls-5" d="M161.8,172.87c.21-7.12,.32-10.69,.54-17.81,3.1-.05,4.65-.07,7.75-.11,2.15-.03,3.85,.49,5.08,1.55,1.24,1.06,1.84,2.52,1.81,4.37-.02,1.2-.32,2.25-.91,3.14-.59,.89-1.4,1.58-2.44,2.07s-2.28,.74-3.71,.76c-1.22,0-1.83,.02-3.04,.04-.06,2.37-.09,3.55-.15,5.92-1.97,.03-2.95,.04-4.91,.07h-.02Zm5.16-9.74c.98,0,1.46-.02,2.44-.03,.78,0,1.4-.21,1.85-.61,.46-.4,.7-.92,.71-1.57,.01-.65-.2-1.16-.64-1.55s-1.05-.58-1.82-.57c-.97,0-1.46,.02-2.43,.03-.04,1.72-.07,2.58-.11,4.3h0Z"/><path class="cls-5" d="M188.15,172.95c-1.86,0-3.51-.38-4.94-1.15-1.44-.78-2.56-1.86-3.38-3.24-.81-1.38-1.2-2.97-1.18-4.77,.02-1.36,.28-2.61,.76-3.74,.49-1.13,1.17-2.11,2.04-2.95,.87-.83,1.89-1.48,3.04-1.94,1.15-.46,2.42-.69,3.8-.7,1.38,0,2.64,.22,3.79,.67,1.15,.45,2.15,1.09,3.01,1.92s1.53,1.81,1.99,2.93c.47,1.13,.7,2.37,.7,3.73,0,1.8-.42,3.39-1.25,4.78-.84,1.39-1.98,2.47-3.43,3.26s-3.1,1.18-4.96,1.19h0Zm.03-4.02c.89,0,1.67-.22,2.33-.66,.66-.44,1.19-1.05,1.57-1.82,.38-.78,.58-1.68,.58-2.71s-.18-1.94-.56-2.72c-.37-.78-.89-1.4-1.54-1.84-.65-.44-1.42-.66-2.3-.66s-1.65,.23-2.31,.68c-.66,.45-1.19,1.07-1.57,1.85-.39,.79-.59,1.7-.6,2.73s.17,1.93,.54,2.71c.37,.77,.89,1.38,1.54,1.81,.66,.43,1.43,.65,2.32,.64h0Z"/><path class="cls-5" d="M209.4,172.98c-1.86,0-3.51-.41-4.96-1.21-1.45-.79-2.6-1.88-3.43-3.27-.84-1.39-1.26-2.98-1.26-4.78,0-1.36,.23-2.6,.7-3.73,.47-1.12,1.13-2.1,1.99-2.93,.86-.83,1.86-1.46,3.01-1.91,1.14-.45,2.41-.67,3.79-.66,1.38,0,2.65,.25,3.8,.71s2.17,1.11,3.04,1.95c.88,.84,1.56,1.82,2.05,2.95,.49,1.13,.74,2.38,.77,3.74,.03,1.8-.36,3.39-1.17,4.77s-1.94,2.45-3.37,3.23c-1.44,.77-3.08,1.15-4.94,1.14h-.02Zm-.04-4.03c.89,0,1.66-.21,2.32-.64,.66-.43,1.17-1.03,1.54-1.81,.37-.77,.55-1.68,.53-2.71,0-1.03-.22-1.94-.6-2.73-.39-.79-.91-1.41-1.58-1.86-.66-.45-1.43-.68-2.31-.68s-1.65,.21-2.3,.65c-.65,.44-1.17,1.06-1.54,1.84s-.56,1.69-.55,2.72c0,1.03,.2,1.93,.59,2.71s.91,1.39,1.58,1.83,1.44,.66,2.33,.67h0Z"/><path class="cls-5" d="M227.05,168.91c3.08,.05,4.62,.07,7.7,.13,.05,1.57,.07,2.36,.12,3.93-5.12-.1-7.68-.14-12.81-.2-.14-7.12-.21-10.68-.36-17.81,2,.02,3,.04,5,.07,.14,5.55,.21,8.33,.34,13.88h0Z"/></g><path class="cls-6" d="M142.79,164.37c-41.14,1.17-82.17,3.41-123.19,6.75,.2-1.37,.3-2.05,.51-3.42,40.9-3.31,81.82-5.54,122.84-6.7-.06,1.35-.09,2.02-.16,3.37h0Z"/><path class="cls-6" d="M375.83,171.48c-41.46-3.45-82.94-5.8-124.53-7.04-.06-1.35-.09-2.02-.15-3.37,41.47,1.23,82.83,3.56,124.18,6.99,.2,1.37,.3,2.05,.5,3.42h0Z"/></g></g></g><g><path class="cls-2" d="M184.03,57.1c0,9.69-7.85,17.54-17.54,17.54s-17.54-7.85-17.54-17.54,7.85-17.55,17.54-17.55,17.54,7.85,17.54,17.55h0Z"/><path class="cls-2" d="M194.01,53.03c.64,0,1.13-.19,1.47-.56,.35-.38,.52-.91,.52-1.6v-7.01h3.17v6.99c0,1.53-.45,2.72-1.35,3.56s-2.17,1.26-3.82,1.26-2.92-.42-3.82-1.26c-.9-.84-1.35-2.03-1.35-3.56v-6.99h3.17v7.01c0,.69,.17,1.23,.52,1.6s.84,.56,1.47,.56h.02Z"/><path class="cls-2" d="M205.51,55.67c-.94,0-1.85-.16-2.71-.49-.86-.32-1.61-.79-2.25-1.39l1.53-1.93c.45,.41,.97,.73,1.53,.96,.57,.23,1.19,.35,1.87,.35,.45,0,.81-.08,1.07-.24s.39-.4,.39-.72-.15-.55-.46-.74c-.31-.19-.85-.38-1.62-.59l-.72-.19c-1.05-.27-1.84-.69-2.39-1.25-.55-.56-.82-1.28-.82-2.14,0-.74,.19-1.39,.58-1.94,.39-.56,.92-.99,1.6-1.29s1.47-.45,2.37-.45,1.73,.16,2.54,.49c.81,.32,1.52,.76,2.15,1.32l-1.59,1.99c-.41-.35-.89-.66-1.44-.92s-1.1-.39-1.64-.39c-.46,0-.8,.08-1.05,.23-.24,.15-.37,.38-.37,.67,0,.27,.13,.51,.38,.71,.26,.2,.7,.38,1.32,.55l.87,.24c1.25,.34,2.13,.81,2.65,1.4s.78,1.28,.78,2.06-.19,1.38-.57,1.93-.92,.98-1.61,1.29-1.5,.46-2.42,.46h0l.03,.02Z"/><path class="cls-2" d="M215.42,50.93h2.74l-1.36-4.06-1.38,4.06h0Zm4.28,4.52l-.73-2.16h-4.35l-.73,2.16h-3.14l4.24-11.59h3.68l4.24,11.59h-3.21Z"/><polygon class="cls-2" points="192.29 70.3 192.29 61.27 188.84 61.27 188.84 58.71 198.9 58.71 198.9 61.27 195.46 61.27 195.46 70.3 192.29 70.3 192.29 70.3"/><path class="cls-2" d="M205.53,67.9c.56,0,1.04-.14,1.46-.43,.41-.28,.74-.68,.98-1.18,.24-.51,.36-1.09,.36-1.76s-.12-1.26-.36-1.77c-.24-.51-.57-.91-.98-1.2-.42-.29-.9-.43-1.46-.43s-1.04,.14-1.46,.43-.74,.69-.98,1.2c-.24,.51-.36,1.1-.36,1.77s.12,1.26,.36,1.76c.24,.51,.57,.9,.98,1.18s.9,.43,1.46,.43h0Zm0,2.63c-1.16,0-2.19-.26-3.09-.77-.9-.51-1.62-1.22-2.14-2.12s-.78-1.94-.78-3.11c0-.89,.15-1.7,.44-2.43,.3-.73,.72-1.37,1.26-1.91,.55-.54,1.18-.96,1.91-1.25s1.53-.44,2.4-.44,1.68,.15,2.4,.44c.73,.3,1.36,.71,1.91,1.25,.54,.54,.97,1.18,1.26,1.91,.3,.73,.44,1.54,.44,2.43,0,1.17-.26,2.21-.78,3.11s-1.24,1.61-2.14,2.12-1.94,.77-3.09,.77h0Z"/><path class="cls-2" d="M216.49,67.79h1.45c.83,0,1.49-.3,1.97-.9s.72-1.4,.72-2.39-.24-1.78-.72-2.39c-.48-.6-1.14-.9-1.97-.9h-1.45v6.58h0Zm-3.12,2.51v-11.59h4.57c1.15,0,2.16,.25,3.04,.74s1.57,1.18,2.07,2.05,.75,1.87,.75,3.01-.25,2.14-.75,3.01-1.19,1.55-2.07,2.05c-.88,.49-1.9,.74-3.04,.74h-4.57Z"/><path class="cls-2" d="M228.88,65.78h2.74l-1.36-4.06-1.38,4.06h0Zm4.28,4.52l-.73-2.16h-4.35l-.73,2.16h-3.14l4.24-11.59h3.68l4.24,11.59h-3.21Z"/><polygon class="cls-2" points="242.51 66.12 242.51 70.3 239.29 70.3 239.29 66.12 235.18 58.71 238.76 58.71 240.91 63.31 243.04 58.71 246.62 58.71 242.51 66.12 242.51 66.12"/></g></g></svg>