<?xml version="1.0" encoding="utf-8"?>
<!-- Generator: Adobe Illustrator 25.4.1, SVG Export Plug-In . SVG Version: 6.00 Build 0)  -->
<svg version="1.1" id="Layer_1" xmlns="http://www.w3.org/2000/svg" xmlns:xlink="http://www.w3.org/1999/xlink" x="0px" y="0px"
	 viewBox="0 0 472.89 500" style="enable-background:new 0 0 472.89 500;" xml:space="preserve">
<style type="text/css">
	.st0{fill:#FFFFFF;}
	.st1{fill:url(#SVGID_1_);}
	.st2{fill:#1A2857;}
	.st3{fill:url(#SVGID_00000176755752436884663530000012135397172446388904_);}
	.st4{fill:#3D195B;}
</style>
<g id="Layer_2_00000047017633283348918650000015200743461787632319_">
	<g id="Layer_1-2">
		<g>
			<path class="st0" d="M472.83,29.08V0.07H2.81v29.01c0,0-0.02,162.71-0.02,163.69C2.7,257.08,22.24,319.9,58.8,372.81L0.31,431.3
				l41.03,41.03l54.81-54.81c13.14,13.09,27.41,25.02,42.63,35.63c27.72,19.35,58.37,34.13,90.77,43.77l8.28,2.46l8.28-2.46
				c134.6-39.94,226.88-163.69,226.75-304.09C472.84,191.86,472.83,29.08,472.83,29.08z"/>
			
				<linearGradient id="SVGID_1_" gradientUnits="userSpaceOnUse" x1="31.8114" y1="299.9618" x2="443.8139" y2="299.9618" gradientTransform="matrix(1 0 0 -1 0 502)">
				<stop  offset="0" style="stop-color:#E32726"/>
				<stop  offset="0.1593" style="stop-color:#DB2727"/>
				<stop  offset="0.4033" style="stop-color:#C62628"/>
				<stop  offset="0.7016" style="stop-color:#A3252B"/>
				<stop  offset="1" style="stop-color:#79232E"/>
			</linearGradient>
			<path class="st1" d="M443.81,28.6H31.83c0,0-0.02,162.95-0.02,163.92c-0.1,66.73,23.04,131.42,65.44,182.95L443.81,28.92V28.6z"
				/>
			<path class="st0" d="M237.82,468.99c119.13-35.46,206.01-145.82,206.01-276.47c0-0.95-0.01-155.72-0.02-163.61L97.26,375.48
				C133.75,419.96,182.69,452.52,237.82,468.99z"/>
			<path class="st2" d="M99.13,328.3l-2.54,2.54l7,7l-1.61,1.61l-7-7L92.43,335l-1.31-1.31l6.7-6.7L99.13,328.3z M110.02,326.57
				l-3.63-8.15l2.32-2.32l8.31,8.31l-1.51,1.51l-6.5-6.5l-0.04,0.04l4.02,8.98l-1.13,1.13l-8.98-4.01l-0.04,0.04l6.5,6.5l-1.51,1.51
				l-8.31-8.31l2.34-2.34L110.02,326.57z"/>
			<g>
				<g>
					<polygon class="st0" points="187.75,192.3 193,208.48 179.24,198.48 165.48,208.48 170.73,192.3 156.97,182.3 173.99,182.3 
						179.24,166.12 184.5,182.3 201.51,182.3 					"/>
					<polygon class="st0" points="108.55,192.3 122.31,182.3 105.3,182.3 100.04,166.12 94.79,182.3 77.77,182.3 91.54,192.3 
						86.28,208.48 100.04,198.48 113.8,208.48 					"/>
					<polygon class="st0" points="144.9,234.99 139.64,218.81 134.39,234.99 117.38,234.99 131.14,244.99 125.88,261.16 
						139.64,251.17 153.4,261.16 148.15,244.99 161.91,234.99 					"/>
				</g>
				<g>
					<path class="st0" d="M93.42,128.95l-15.6-35.54h-0.5v47.43c0.04,0.65-0.45,1.2-1.1,1.24c-0.05,0-0.09,0-0.14,0H62.09
						c-0.65,0.04-1.21-0.46-1.25-1.11c0-0.05,0-0.09,0-0.14V59.11c-0.04-0.65,0.46-1.2,1.1-1.24c0.05,0,0.1,0,0.14,0h14.73
						c0.86-0.09,1.68,0.42,1.98,1.24l21.3,48.05h0.5l20.92-48.05c0.3-0.82,1.12-1.33,1.98-1.24H138c0.64-0.04,1.19,0.45,1.23,1.09
						c0,0.05,0,0.1,0,0.15v81.73c0.04,0.65-0.45,1.2-1.09,1.24c-0.05,0-0.09,0-0.14,0h-14c-0.65,0.04-1.2-0.46-1.23-1.11
						c0-0.05,0-0.09,0-0.14V93.41h-0.5l-15.6,35.54c-0.34,1.01-1.3,1.66-2.36,1.62h-8.54C94.72,130.61,93.76,129.95,93.42,128.95"/>
					<path class="st0" d="M151.81,142.08h54.86c0.65,0.04,1.2-0.46,1.24-1.11c0-0.05,0-0.09,0-0.14v-13.75
						c0.04-0.65-0.46-1.2-1.11-1.24c-0.04,0-0.09,0-0.13,0h-37.15c-0.36,0.05-0.69-0.2-0.74-0.56c-0.01-0.06-0.01-0.13,0-0.19v-66
						c0.04-0.64-0.45-1.2-1.09-1.24c-0.05,0-0.1,0-0.15,0h-15.73c-0.64-0.04-1.2,0.45-1.24,1.09c0,0.05,0,0.1,0,0.14v81.73
						c-0.04,0.65,0.45,1.2,1.1,1.24C151.72,142.09,151.76,142.09,151.81,142.08"/>
					<path class="st0" d="M253.6,91.43l-4.46-0.62c-9.66-1.36-13.13-4.45-13.13-9.29c0-5.33,3.84-9.16,11.27-9.16
						c6.94,0,13.12,2.23,19.56,6.44c0.57,0.38,1.34,0.22,1.72-0.36c0-0.01,0.01-0.02,0.01-0.02l7.56-11.27
						c0.62-0.87,0.49-1.36-0.24-1.85c-7.06-5.45-17.47-8.79-28.61-8.79c-18.21,0-29.84,10.28-29.84,25.76
						c0,14.86,9.53,22.91,26.63,25.26l4.46,0.62c10.03,1.36,13,4.46,13,9.42c0,5.94-4.95,10.03-13.74,10.03
						c-8.91,0-16.47-4.21-22.04-8.67c-0.49-0.48-1.27-0.48-1.76,0.01c-0.04,0.04-0.07,0.08-0.1,0.12l-9.41,10.77
						c-0.53,0.62-0.48,1.55,0.12,2.11c6.56,6.32,19.32,11.51,32.45,11.51c21.79,0,33.07-11.27,33.07-26.5
						C280.1,101.71,270.94,93.78,253.6,91.43"/>
				</g>
			</g>
			
				<radialGradient id="SVGID_00000033370113411415051350000010360468055473265332_" cx="237.8207" cy="252.9931" r="222.9949" gradientTransform="matrix(1 0 0 -1 0 502)" gradientUnits="userSpaceOnUse">
				<stop  offset="0" style="stop-color:#1099D6"/>
				<stop  offset="0.1402" style="stop-color:#1192CE"/>
				<stop  offset="0.3552" style="stop-color:#127FB9"/>
				<stop  offset="0.6181" style="stop-color:#156096"/>
				<stop  offset="0.9164" style="stop-color:#193566"/>
				<stop  offset="1" style="stop-color:#1A2857"/>
			</radialGradient>
			<path style="fill:url(#SVGID_00000033370113411415051350000010360468055473265332_);" d="M453.49,28.6l0-9.67H22.16l0,9.67
				c0,0-0.02,162.95-0.02,163.93c-0.1,64.9,21.08,128.05,60.29,179.77c0.61,0.8,1.23,1.59,1.85,2.39L27.67,431.3l13.68,13.68
				l55.31-55.31c15.77,17.89,33.63,33.82,53.19,47.47c26.02,18.18,54.8,32.07,85.22,41.12l2.76,0.82l2.76-0.82
				c30.43-9.06,59.2-22.94,85.22-41.12c25.73-17.95,48.48-39.83,67.41-64.85c39.21-51.72,60.39-114.87,60.29-179.77
				C453.5,191.55,453.49,28.6,453.49,28.6z M97.85,360.62c-36.67-48.36-56.47-107.41-56.37-168.09c0-0.83,0.01-119.2,0.01-154.25
				h379.19L98.07,360.9C98,360.8,97.92,360.71,97.85,360.62z M419.24,282.73c-9.58,28.01-23.57,54.3-41.45,77.89
				c-17.71,23.4-38.99,43.87-63.05,60.66c-23.54,16.44-49.48,29.13-76.91,37.61c-27.43-8.48-53.38-21.16-76.91-37.61
				c-18.63-13-35.6-28.22-50.55-45.32L434.15,52.17c0,45.18,0.01,139.61,0.01,140.35C434.19,223.21,429.15,253.69,419.24,282.73z"/>
		</g>
	</g>
</g>
</svg>
