<?xml version="1.0" encoding="utf-8"?>
<!-- Generator: Adobe Illustrator 25.4.1, SVG Export Plug-In . SVG Version: 6.00 Build 0)  -->
<svg version="1.1" id="Layer_1" xmlns="http://www.w3.org/2000/svg" xmlns:xlink="http://www.w3.org/1999/xlink" x="0px" y="0px"
	 viewBox="0 0 500 254.62" style="enable-background:new 0 0 500 254.62;" xml:space="preserve">
<style type="text/css">
	.st0{fill-rule:evenodd;clip-rule:evenodd;fill:#1A3B73;}
	.st1{fill-rule:evenodd;clip-rule:evenodd;fill:#FFFFFF;}
	.st2{fill-rule:evenodd;clip-rule:evenodd;fill:#CF4044;}
	.st3{fill:#007AC2;}
	.st4{fill:#E4002B;}
	.st5{fill:#FFD659;}
	.st6{clip-path:url(#SVGID_00000159468893052247307640000012356333706109315511_);}
	.st7{fill:#00509D;}
	.st8{fill:#2EBAE8;}
	.st9{fill:#00B3E5;}
	.st10{fill:#00AFE3;}
	.st11{fill:#0070B8;}
	.st12{fill:#009ED8;}
	.st13{fill:#00A3DB;}
	.st14{fill:#008ACB;}
	.st15{fill:#006DB5;}
	.st16{fill:#0074BA;}
	.st17{fill:#0089CA;}
	.st18{fill:#0065AE;}
	.st19{fill:#0072B9;}
	.st20{fill:#0065AF;}
	.st21{fill:#009FD8;}
	.st22{fill:#0078BD;}
	.st23{fill:#0079BF;}
	.st24{fill:#00A0D9;}
	.st25{fill:#0080C3;}
	.st26{fill:#0098D4;}
	.st27{fill:#008ACA;}
	.st28{fill:#008DCD;}
	.st29{fill:#00A4DC;}
	.st30{fill:#0083C6;}
	.st31{fill:#0086C8;}
	.st32{fill:#009CD6;}
	.st33{fill:#009DD7;}
	.st34{fill:#00A6DD;}
	.st35{fill:#009CD7;}
	.st36{fill:#00A9DF;}
	.st37{fill:#00A2DA;}
	.st38{fill:#00519D;}
	.st39{fill:#0087C8;}
	.st40{fill:#006CB4;}
	.st41{fill:#0086C7;}
	.st42{fill:#009AD5;}
	.st43{fill:#007DC1;}
	.st44{fill:#00A5DC;}
	.st45{fill:#00A2DB;}
	.st46{fill:#00A5DD;}
	.st47{fill:#00A8DF;}
	.st48{fill:#0094D1;}
	.st49{fill:#00A6DE;}
	.st50{fill:#00A1DA;}
	.st51{fill:#00A7DE;}
	.st52{fill:#00A8DE;}
	.st53{fill:#00AAE0;}
	.st54{fill:#0090CE;}
	.st55{fill:#009BD6;}
	.st56{fill:#00A9E0;}
	.st57{fill:#008CCC;}
	.st58{fill:#0082C5;}
	.st59{fill:#007FC3;}
	.st60{fill:#0081C4;}
	.st61{fill:#00ABE1;}
	.st62{fill:#007EC2;}
	.st63{fill:#007FC2;}
	.st64{fill:#0096D2;}
	.st65{fill:#0096D3;}
	.st66{fill:#00B1E4;}
	.st67{fill:#04B5E6;}
	.st68{fill:#1FB8E7;}
	.st69{fill:#26B9E8;}
	.st70{fill:#00A7DD;}
	.st71{fill:#00ABE0;}
	.st72{fill:#009FD9;}
	.st73{fill:#00B0E3;}
	.st74{fill:#0AB7E7;}
	.st75{fill:#00B4E5;}
	.st76{fill:#00B5E6;}
	.st77{fill:#20B7E7;}
	.st78{fill:#29B8E7;}
	.st79{fill:#15B7E7;}
	.st80{fill:#32BAE8;}
	.st81{fill:#00ACE1;}
	.st82{fill:#00B2E4;}
	.st83{fill:#38BBE9;}
	.st84{fill:#42BFEB;}
	.st85{fill:#00B2E5;}
	.st86{fill:#35BBE8;}
	.st87{fill:#0093D0;}
	.st88{fill:#008BCB;}
	.st89{fill:#008CCB;}
	.st90{fill:#0092D0;}
	.st91{fill:#008ECD;}
	.st92{fill:#00A4DB;}
	.st93{fill:#0085C7;}
	.st94{fill:#0088C9;}
	.st95{fill:#0083C5;}
	.st96{fill:#0093D1;}
	.st97{fill:#007ABF;}
	.st98{fill:#0095D2;}
	.st99{fill:#008DCC;}
	.st100{fill:#0079BE;}
	.st101{fill:#0077BD;}
	.st102{fill:#0076BC;}
	.st103{fill:#0074BB;}
	.st104{fill:#006FB7;}
	.st105{fill:#00ACE2;}
	.st106{fill:#00AEE2;}
	.st107{fill:#0097D3;}
	.st108{fill:#48BFEA;}
	.st109{fill:#007CC1;}
	.st110{fill:#29BAE9;}
	.st111{fill:#0099D4;}
	.st112{fill:#0099D5;}
	.st113{fill:#33BCEA;}
	.st114{fill:#36BCEA;}
	.st115{fill:#00B1E3;}
	.st116{fill:#49C1EB;}
	.st117{fill:#39BDEA;}
	.st118{fill:#30BCE9;}
	.st119{fill:#00AFE2;}
	.st120{fill:#33B7E6;}
	.st121{fill:#4BC1EC;}
	.st122{fill:#34BBE9;}
	.st123{fill:#3BBDEA;}
	.st124{fill:#43BEEA;}
	.st125{fill:#00ADE2;}
	.st126{fill:#07B5E6;}
	.st127{fill:#3FBDEA;}
	.st128{fill:#54C2EB;}
	.st129{fill:#28B9E8;}
	.st130{fill:#41BEEA;}
	.st131{fill:#2BB7E6;}
	.st132{fill:#54C1EB;}
	.st133{fill:#59C4EC;}
	.st134{fill:#58C2EB;}
	.st135{fill:#4CC0EB;}
	.st136{fill:#50C1EB;}
	.st137{fill:#47BFEB;}
	.st138{fill:#21B7E7;}
	.st139{fill:#55C3EC;}
	.st140{fill:#67C7ED;}
	.st141{fill:#59C3EC;}
	.st142{fill:#56C2EC;}
	.st143{fill:#5FC4EC;}
	.st144{fill:#6DC8EE;}
	.st145{fill:#64C5ED;}
	.st146{fill:#51BFEA;}
	.st147{fill:#62C5EC;}
	.st148{fill:#3EBEEA;}
	.st149{fill:#69C6ED;}
	.st150{fill:#0075BC;}
	.st151{fill:#008FCE;}
	.st152{fill:#31B5E5;}
	.st153{fill:#4DBCE8;}
	.st154{fill:#006EB6;}
	.st155{fill:#009AD6;}
	.st156{fill:#74CBEF;}
	.st157{fill:#56BFE9;}
	.st158{fill:#66C5EC;}
	.st159{fill:#70CAEE;}
	.st160{fill:#59C0EA;}
	.st161{fill:#61C3EB;}
	.st162{fill:#60C2EB;}
	.st163{fill:#52BEE9;}
	.st164{fill:#65C6ED;}
	.st165{fill:#3BB6E5;}
	.st166{fill:#27B2E3;}
	.st167{fill:#0071B9;}
	.st168{fill:#007CC0;}
	.st169{fill:#31B6E5;}
	.st170{fill:#00AADF;}
	.st171{fill:#3EB9E7;}
	.st172{fill:#008FCD;}
	.st173{fill:#007BBF;}
	.st174{fill:#4CBDE9;}
	.st175{fill:#03B1E3;}
	.st176{fill:#1FB3E4;}
	.st177{fill:#73CBEF;}
	.st178{fill:#00ADE1;}
	.st179{fill:#00A0DA;}
	.st180{fill:#009DD8;}
	.st181{fill:#01B1E3;}
	.st182{fill:#14B0E2;}
	.st183{fill:#009ED7;}
	.st184{fill:#0084C6;}
	.st185{fill:#0082C4;}
	.st186{fill:#25B5E5;}
	.st187{fill:#0091CF;}
	.st188{fill:#0075BB;}
	.st189{fill:#009BD5;}
	.st190{fill:#0098D3;}
	.st191{fill:#006CB5;}
	.st192{fill:#5CC2EB;}
	.st193{fill:#3CBCE9;}
	.st194{fill:#61C4EC;}
	.st195{fill:#0090CF;}
	.st196{fill:#44BDEA;}
	.st197{fill:#005CA6;}
	.st198{fill:#5BC3EC;}
	.st199{fill:#0073BA;}
	.st200{fill:#006BB3;}
	.st201{fill:#0058A3;}
	.st202{fill:#0057A3;}
	.st203{fill:#0092CF;}
	.st204{fill:#00529F;}
	.st205{fill:#006AB2;}
	.st206{fill:#0072BA;}
	.st207{fill:#0056A1;}
	.st208{fill:#0080C4;}
	.st209{fill:#007CBF;}
	.st210{fill:#005DA7;}
	.st211{fill:#0062AC;}
	.st212{fill:#0070B7;}
	.st213{fill:#0079BD;}
	.st214{fill:#0072B8;}
	.st215{fill:#007ABE;}
	.st216{clip-path:url(#SVGID_00000003803524896771026900000012946321773200424594_);}
	.st217{fill:#007BC0;}
	.st218{fill:#0078BE;}
	.st219{fill:#0087C9;}
	.st220{fill:#0089C9;}
	.st221{fill:#0088C8;}
	.st222{fill:#0095D1;}
	.st223{fill:#00A3DC;}
	.st224{clip-path:url(#SVGID_00000031909891757186842690000004704671619985888698_);}
	.st225{clip-path:url(#SVGID_00000075867675348302407270000012972619963684073658_);}
	.st226{clip-path:url(#SVGID_00000170998018614778162900000011234088928565381288_);}
	.st227{fill:#181210;}
	.st228{fill:#E51636;}
	.st229{fill:#E31936;}
	.st230{clip-path:url(#SVGID_00000052083595164125381550000017379725602183785399_);}
	.st231{fill:#FFFFFF;}
	.st232{fill:#7814FF;}
	.st233{display:none;fill:#FFFFFF;}
	.st234{fill:#151D33;}
	.st235{fill:#FFD201;}
	.st236{fill:#343636;}
	.st237{clip-path:url(#SVGID_00000121268463399316318380000004845033064843445671_);}
	.st238{clip-path:url(#SVGID_00000073001370444216193180000000841849420131139231_);}
</style>
<g>
	<path class="st233" d="M429.36,103.38c-4.25-11.67-8.6-23.35-12.94-34.84c-0.18-0.54-0.63-0.9-1.18-0.9h-2.44
		c-0.54,0-1,0.36-1.18,0.81c-4.34,11.4-8.6,22.62-12.94,33.84c-0.27,0.72,0.09,1.54,0.81,1.81c0.09,0.09,0.27,0.09,0.36,0.09
		c9.41,0.27,18.91,0.63,28.32,1c0.72,0,1.36-0.63,1.27-1.36C429.45,103.65,429.45,103.47,429.36,103.38z"/>
	<rect x="0.04" y="0.13" class="st234" width="499.87" height="254.29"/>
	<path class="st235" d="M24.71,32.53h450.35c0.45,0,0.9-0.36,0.9-0.9V15.25c0-0.45-0.36-0.9-0.9-0.9H24.71c-0.45,0-0.9,0.45-0.9,0.9
		v16.38C23.8,32.08,24.16,32.53,24.71,32.53z"/>
	<path class="st231" d="M344.49,148.62c0.63,0,1.18-0.54,1.18-1.27v-13.93c0-0.72-0.54-1.27-1.27-1.36l-9.95-0.27
		c-0.72,0-1.27-0.63-1.27-1.36c-0.09-20.63-0.09-41.26-0.09-61.89c0-0.72,0.54-1.36,1.27-1.36l9.95,0.09
		c0.72-0.09,1.27-0.63,1.27-1.36V51.98c0-0.72-0.54-1.36-1.27-1.36H296.8c-0.54,0-1,0.36-1.18,0.81
		c-8.78,22.44-17.64,44.88-26.51,67.32c-0.09,0.36-0.36,0.63-0.72,0.72c-0.63,0.27-1.36-0.09-1.63-0.72L240.7,51.44
		c-0.18-0.45-0.63-0.81-1.18-0.81h-47.87c-0.72,0.09-1.27,0.63-1.27,1.36v13.84c0,0.72,0.54,1.27,1.27,1.27h9.95
		c0.72,0.09,1.27,0.63,1.27,1.36v61.35c0,0.72-0.54,1.36-1.27,1.36l-9.95,0.18c-0.72,0.09-1.27,0.63-1.54,1v13.75v0.09
		c0,0.72,0.54,1.27,1.27,1.27c15.11-0.36,30.13-0.54,45.24-0.63c0.72-0.09,1.27-0.72,1.18-1.45V131.7c0-0.63-0.54-1.27-1.27-1.27
		l-11.31,0.09c-0.72,0-1.27-0.54-1.27-1.27V73.43c0-0.54,0.36-1,0.81-1.18c0.63-0.27,1.36,0.09,1.63,0.72
		c8.6,22.17,17.28,44.43,25.88,66.69c0.18,0.45,0.63,0.81,1.18,0.81c8.69,0,17.28,0.09,25.88,0.18c0.54,0,1-0.36,1.18-0.81
		c8.69-22.17,17.37-44.43,26.06-66.78c0.27-0.54,0.72-0.81,1.27-0.81c0.72,0.09,1.27,0.63,1.27,1.36
		c0.09,18.73,0.09,37.46,0.09,56.19c0,0.72-0.54,1.27-1.27,1.27l-10.23-0.18c-0.72,0-1.27,0.54-1.27,1.27v13.75
		c0,0.72,0.54,1.36,1.27,1.36c15.56,0.27,31.13,0.72,46.69,1.36H344.49z"/>
	<path class="st231" d="M341.68,170.52v-2.99c-3.53-0.18-7.06-0.27-10.59-0.45v2.99l3.26,0.18v20.9l-3.26-0.18v2.99
		c3.53,0.18,7.06,0.27,10.59,0.45v-2.99l-3.26-0.18v-20.9L341.68,170.52z"/>
	<polygon class="st231" points="398.96,188.8 392.26,170.43 388.82,170.16 388.82,197.04 392.44,197.31 392.44,179.21 
		399.14,197.76 402.58,198.03 402.58,171.16 398.96,170.88 	"/>
	<path class="st231" d="M474.97,139.94l-6.61-0.54c-0.54-0.09-1-0.45-1.18-1c-8.69-23.16-17.37-45.79-26.15-67.96
		c0-0.09-0.09-0.27-0.09-0.45c-0.09-0.72,0.54-1.36,1.27-1.45l13.48,0.18c0.72-0.09,1.36-0.72,1.27-1.45V52.44
		c0.09-0.72-0.54-1.45-1.27-1.45h-79.63c-0.72,0-1.27,0.63-1.27,1.36v14.03c0,0.72,0.54,1.36,1.27,1.36l12.4,0.09
		c0.18,0,0.27,0,0.45,0.09c0.72,0.27,1,1.09,0.72,1.81c-8.69,21.17-17.28,42.08-25.97,62.71c-0.18,0.45-0.63,0.72-1.18,0.72
		l-6.42-0.27c-0.09,0-0.09,0-0.18,0.27c-0.63,0-1.18,0.54-1.18,1.27v13.84c0,0.72,0.54,1.27,1.27,1.36
		c14.03,0.63,28.14,1.36,42.26,2.26h0.09c0.72,0,1.27-0.54,1.27-1.27v-13.48c0-0.72-0.54-1.36-1.27-1.45l-10.32-0.54
		c-0.09,0-0.27,0-0.36-0.09c-0.72-0.27-1.09-1.09-0.81-1.81c1.63-3.98,3.17-8.05,4.71-12.03c0.18-0.54,0.63-0.81,1.18-0.81
		c14.3,0.54,28.5,1.27,42.8,1.99c0.54,0,1,0.36,1.18,0.9c1.54,4.34,3.17,8.6,4.71,12.94c0.09,0.18,0.09,0.36,0.09,0.54
		c0.09,0.72-0.54,1.36-1.27,1.36l-9.86-0.63h-0.09c-0.72,0.09-1.27,0.63-1.18,1.36v13.75c0,0.81,0.54,1.45,1.27,1.54
		c14.84,1.18,29.68,2.44,44.52,3.8h0.18c0.72-0.09,1.27-0.63,1.18-1.36v-15.11C476.32,140.75,475.69,140.03,474.97,139.94z
		 M428.19,105.19c-9.41-0.36-18.91-0.72-28.32-1c-0.09,0-0.27,0-0.36-0.09c-0.72-0.27-1.09-1.09-0.81-1.81
		c4.34-11.22,8.6-22.44,12.94-33.84c0.18-0.45,0.63-0.81,1.18-0.81h2.44c0.54,0,1,0.36,1.18,0.9c4.34,11.49,8.69,23.16,12.94,34.84
		c0.09,0.09,0.09,0.27,0.09,0.45C429.54,104.56,428.91,105.19,428.19,105.19z"/>
	<polygon class="st231" points="463.93,184.19 463.93,179.75 460.67,176.31 453.79,175.59 450.54,178.3 450.54,199.03 453.7,202.46 
		460.67,203.19 463.84,200.47 463.84,189.52 457.14,188.8 457.14,192.06 459.86,192.33 459.86,198.66 458.5,199.84 455.97,199.57 
		454.61,198.12 454.61,180.2 455.97,179.03 458.5,179.3 459.86,180.75 459.86,183.73 	"/>
	<polygon class="st231" points="103.25,173.69 103.25,170.7 92.66,171.52 92.66,174.5 95.92,174.23 95.92,195.13 92.66,195.41 
		92.66,198.39 103.25,197.58 103.25,194.59 99.99,194.86 99.99,173.96 	"/>
	<path class="st231" d="M163.6,174.78v-4.43l-3.26-2.9l-6.88,0.27l-3.26,3.26v20.72l3.26,2.81l6.97-0.27l3.17-3.17v-10.95
		c-2.35,0.09-4.34,0.18-6.7,0.27v3.26l2.71-0.18v6.33l-1.36,1.36l-2.62,0.09l-1.36-1.18v-17.92l1.36-1.36l2.53-0.09l1.36,1.27v2.99
		L163.6,174.78z"/>
	<path class="st231" d="M47.15,178.94v-3.35c-3.71,0.36-7.33,0.72-11.04,1.09l0,0v26.97l4.07-0.45V191.7l6.33-0.63v-3.35l-6.33,0.63
		v-8.69L47.15,178.94z"/>
	<path class="st235" d="M474.52,222.1c-149.48-14.03-299.87-14.03-449.27,0c-0.9,0.09-1.63,0.81-1.63,1.72v14.93v0.18
		c0.09,0.81,0.81,1.36,1.63,1.27c149.48-14.03,299.87-14.03,449.27,0h0.27c0.72,0,1.36-0.63,1.36-1.45v-14.93
		C476.05,222.91,475.42,222.19,474.52,222.1z"/>
	<polygon class="st231" points="225.13,192.33 225.13,165.55 221.06,165.64 221.06,177.4 215.63,177.49 215.63,165.73 
		211.56,165.82 211.56,192.6 215.63,192.51 215.63,181.2 221.06,181.11 221.06,192.42 	"/>
	<path class="st231" d="M24.98,69l9.95-0.18c0.72,0.09,1.36,0.72,1.27,1.45v67.05c0.09,0.72-0.54,1.45-1.27,1.54l-9.95,0.72
		c-0.72,0.09-1.27,0.72-1.27,1.72v15.38c0,0.63,0.54,1.18,1.27,1.18c15.02-1.36,30.04-2.71,45.06-3.8c0.72-0.18,1.27-0.81,1.27-1.54
		v-14.75c0-0.63-0.54-1.18-1.27-1.18l-11.31,0.72h-0.09c-0.72-0.09-1.27-0.63-1.18-1.36c0.09-20.09,0.09-40.09,0.09-60.17
		c-0.09-0.63,0.27-1.27,0.9-1.45c0.72-0.27,1.45,0.18,1.63,0.81c8.51,23.8,17.1,47.23,25.7,70.22c0.18,0.54,0.63,0.81,1.18,0.81
		c8.6-0.54,17.19-1.09,25.79-1.54c0.54,0,1-0.36,1.18-0.9c8.78-23.62,17.46-46.87,26.24-69.77c0.18-0.45,0.72-0.81,1.27-0.81
		c0.72,0.09,1.27,0.63,1.27,1.36c-0.09,19.09-0.09,38.09-0.09,57.19c0,0.72-0.54,1.27-1.27,1.36l-10.23,0.45
		c-0.72,0.09-1.27,0.72-1.27,1.45v14.12v0.09c0,0.63,0.54,1.18,1.27,1.18c15.56-0.81,31.13-1.45,46.69-1.9
		c0.72,0,1.27-0.63,1.27-1.36v-13.93c0-0.72-0.54-1.27-1.27-1.27l-9.95,0.27h-0.09c-0.72,0-1.27-0.54-1.27-1.27
		c0.09-20.63,0.09-41.26,0.09-61.89c0-0.72,0.54-1.36,1.27-1.36l9.95-0.09c0.72,0,1.27-0.63,1.27-1.36V52.35
		c0-0.72-0.54-1.36-1.27-1.36H130.3c-0.54,0-1,0.27-1.18,0.81c-8.96,23.07-17.83,46.6-26.69,70.49c-0.18,0.36-0.45,0.63-0.81,0.81
		c-0.63,0.27-1.36-0.09-1.63-0.72C91.3,99.22,82.71,75.69,74.02,51.8c-0.18-0.54-0.63-0.9-1.18-0.9H24.98
		c-0.72,0-1.36,0.72-1.27,1.45v15.2C23.62,68.36,24.25,69,24.98,69z"/>
	<path class="st231" d="M280.69,192.51v-23.44l4.8,0.09v-3.44c-4.52-0.09-9.14-0.09-13.75-0.18v3.44l4.89,0.09v23.35L280.69,192.51z
		"/>
</g>
</svg>
