<?xml version="1.0" encoding="utf-8"?>
<!-- Generator: Adobe Illustrator 25.4.1, SVG Export Plug-In . SVG Version: 6.00 Build 0)  -->
<svg version="1.1" id="Layer_1" xmlns="http://www.w3.org/2000/svg" xmlns:xlink="http://www.w3.org/1999/xlink" x="0px" y="0px"
	 viewBox="0 0 500 83.44" style="enable-background:new 0 0 500 83.44;" xml:space="preserve">
<style type="text/css">
	.st0{fill-rule:evenodd;clip-rule:evenodd;fill:#1A3B73;}
	.st1{fill-rule:evenodd;clip-rule:evenodd;fill:#FFFFFF;}
	.st2{fill-rule:evenodd;clip-rule:evenodd;fill:#CF4044;}
	.st3{fill:#007AC2;}
	.st4{fill:#E4002B;}
	.st5{fill:#FFD659;}
	.st6{clip-path:url(#SVGID_00000061457705233136968550000002553477835666047127_);}
	.st7{fill:#00509D;}
	.st8{fill:#2EBAE8;}
	.st9{fill:#00B3E5;}
	.st10{fill:#00AFE3;}
	.st11{fill:#0070B8;}
	.st12{fill:#009ED8;}
	.st13{fill:#00A3DB;}
	.st14{fill:#008ACB;}
	.st15{fill:#006DB5;}
	.st16{fill:#0074BA;}
	.st17{fill:#0089CA;}
	.st18{fill:#0065AE;}
	.st19{fill:#0072B9;}
	.st20{fill:#0065AF;}
	.st21{fill:#009FD8;}
	.st22{fill:#0078BD;}
	.st23{fill:#0079BF;}
	.st24{fill:#00A0D9;}
	.st25{fill:#0080C3;}
	.st26{fill:#0098D4;}
	.st27{fill:#008ACA;}
	.st28{fill:#008DCD;}
	.st29{fill:#00A4DC;}
	.st30{fill:#0083C6;}
	.st31{fill:#0086C8;}
	.st32{fill:#009CD6;}
	.st33{fill:#009DD7;}
	.st34{fill:#00A6DD;}
	.st35{fill:#009CD7;}
	.st36{fill:#00A9DF;}
	.st37{fill:#00A2DA;}
	.st38{fill:#00519D;}
	.st39{fill:#0087C8;}
	.st40{fill:#006CB4;}
	.st41{fill:#0086C7;}
	.st42{fill:#009AD5;}
	.st43{fill:#007DC1;}
	.st44{fill:#00A5DC;}
	.st45{fill:#00A2DB;}
	.st46{fill:#00A5DD;}
	.st47{fill:#00A8DF;}
	.st48{fill:#0094D1;}
	.st49{fill:#00A6DE;}
	.st50{fill:#00A1DA;}
	.st51{fill:#00A7DE;}
	.st52{fill:#00A8DE;}
	.st53{fill:#00AAE0;}
	.st54{fill:#0090CE;}
	.st55{fill:#009BD6;}
	.st56{fill:#00A9E0;}
	.st57{fill:#008CCC;}
	.st58{fill:#0082C5;}
	.st59{fill:#007FC3;}
	.st60{fill:#0081C4;}
	.st61{fill:#00ABE1;}
	.st62{fill:#007EC2;}
	.st63{fill:#007FC2;}
	.st64{fill:#0096D2;}
	.st65{fill:#0096D3;}
	.st66{fill:#00B1E4;}
	.st67{fill:#04B5E6;}
	.st68{fill:#1FB8E7;}
	.st69{fill:#26B9E8;}
	.st70{fill:#00A7DD;}
	.st71{fill:#00ABE0;}
	.st72{fill:#009FD9;}
	.st73{fill:#00B0E3;}
	.st74{fill:#0AB7E7;}
	.st75{fill:#00B4E5;}
	.st76{fill:#00B5E6;}
	.st77{fill:#20B7E7;}
	.st78{fill:#29B8E7;}
	.st79{fill:#15B7E7;}
	.st80{fill:#32BAE8;}
	.st81{fill:#00ACE1;}
	.st82{fill:#00B2E4;}
	.st83{fill:#38BBE9;}
	.st84{fill:#42BFEB;}
	.st85{fill:#00B2E5;}
	.st86{fill:#35BBE8;}
	.st87{fill:#0093D0;}
	.st88{fill:#008BCB;}
	.st89{fill:#008CCB;}
	.st90{fill:#0092D0;}
	.st91{fill:#008ECD;}
	.st92{fill:#00A4DB;}
	.st93{fill:#0085C7;}
	.st94{fill:#0088C9;}
	.st95{fill:#0083C5;}
	.st96{fill:#0093D1;}
	.st97{fill:#007ABF;}
	.st98{fill:#0095D2;}
	.st99{fill:#008DCC;}
	.st100{fill:#0079BE;}
	.st101{fill:#0077BD;}
	.st102{fill:#0076BC;}
	.st103{fill:#0074BB;}
	.st104{fill:#006FB7;}
	.st105{fill:#00ACE2;}
	.st106{fill:#00AEE2;}
	.st107{fill:#0097D3;}
	.st108{fill:#48BFEA;}
	.st109{fill:#007CC1;}
	.st110{fill:#29BAE9;}
	.st111{fill:#0099D4;}
	.st112{fill:#0099D5;}
	.st113{fill:#33BCEA;}
	.st114{fill:#36BCEA;}
	.st115{fill:#00B1E3;}
	.st116{fill:#49C1EB;}
	.st117{fill:#39BDEA;}
	.st118{fill:#30BCE9;}
	.st119{fill:#00AFE2;}
	.st120{fill:#33B7E6;}
	.st121{fill:#4BC1EC;}
	.st122{fill:#34BBE9;}
	.st123{fill:#3BBDEA;}
	.st124{fill:#43BEEA;}
	.st125{fill:#00ADE2;}
	.st126{fill:#07B5E6;}
	.st127{fill:#3FBDEA;}
	.st128{fill:#54C2EB;}
	.st129{fill:#28B9E8;}
	.st130{fill:#41BEEA;}
	.st131{fill:#2BB7E6;}
	.st132{fill:#54C1EB;}
	.st133{fill:#59C4EC;}
	.st134{fill:#58C2EB;}
	.st135{fill:#4CC0EB;}
	.st136{fill:#50C1EB;}
	.st137{fill:#47BFEB;}
	.st138{fill:#21B7E7;}
	.st139{fill:#55C3EC;}
	.st140{fill:#67C7ED;}
	.st141{fill:#59C3EC;}
	.st142{fill:#56C2EC;}
	.st143{fill:#5FC4EC;}
	.st144{fill:#6DC8EE;}
	.st145{fill:#64C5ED;}
	.st146{fill:#51BFEA;}
	.st147{fill:#62C5EC;}
	.st148{fill:#3EBEEA;}
	.st149{fill:#69C6ED;}
	.st150{fill:#0075BC;}
	.st151{fill:#008FCE;}
	.st152{fill:#31B5E5;}
	.st153{fill:#4DBCE8;}
	.st154{fill:#006EB6;}
	.st155{fill:#009AD6;}
	.st156{fill:#74CBEF;}
	.st157{fill:#56BFE9;}
	.st158{fill:#66C5EC;}
	.st159{fill:#70CAEE;}
	.st160{fill:#59C0EA;}
	.st161{fill:#61C3EB;}
	.st162{fill:#60C2EB;}
	.st163{fill:#52BEE9;}
	.st164{fill:#65C6ED;}
	.st165{fill:#3BB6E5;}
	.st166{fill:#27B2E3;}
	.st167{fill:#0071B9;}
	.st168{fill:#007CC0;}
	.st169{fill:#31B6E5;}
	.st170{fill:#00AADF;}
	.st171{fill:#3EB9E7;}
	.st172{fill:#008FCD;}
	.st173{fill:#007BBF;}
	.st174{fill:#4CBDE9;}
	.st175{fill:#03B1E3;}
	.st176{fill:#1FB3E4;}
	.st177{fill:#73CBEF;}
	.st178{fill:#00ADE1;}
	.st179{fill:#00A0DA;}
	.st180{fill:#009DD8;}
	.st181{fill:#01B1E3;}
	.st182{fill:#14B0E2;}
	.st183{fill:#009ED7;}
	.st184{fill:#0084C6;}
	.st185{fill:#0082C4;}
	.st186{fill:#25B5E5;}
	.st187{fill:#0091CF;}
	.st188{fill:#0075BB;}
	.st189{fill:#009BD5;}
	.st190{fill:#0098D3;}
	.st191{fill:#006CB5;}
	.st192{fill:#5CC2EB;}
	.st193{fill:#3CBCE9;}
	.st194{fill:#61C4EC;}
	.st195{fill:#0090CF;}
	.st196{fill:#44BDEA;}
	.st197{fill:#005CA6;}
	.st198{fill:#5BC3EC;}
	.st199{fill:#0073BA;}
	.st200{fill:#006BB3;}
	.st201{fill:#0058A3;}
	.st202{fill:#0057A3;}
	.st203{fill:#0092CF;}
	.st204{fill:#00529F;}
	.st205{fill:#006AB2;}
	.st206{fill:#0072BA;}
	.st207{fill:#0056A1;}
	.st208{fill:#0080C4;}
	.st209{fill:#007CBF;}
	.st210{fill:#005DA7;}
	.st211{fill:#0062AC;}
	.st212{fill:#0070B7;}
	.st213{fill:#0079BD;}
	.st214{fill:#0072B8;}
	.st215{fill:#007ABE;}
	.st216{clip-path:url(#SVGID_00000051345094508064876500000006178587236593901969_);}
	.st217{fill:#007BC0;}
	.st218{fill:#0078BE;}
	.st219{fill:#0087C9;}
	.st220{fill:#0089C9;}
	.st221{fill:#0088C8;}
	.st222{fill:#0095D1;}
	.st223{fill:#00A3DC;}
	.st224{clip-path:url(#SVGID_00000038373200290830194210000007046065306777882273_);}
	.st225{clip-path:url(#SVGID_00000149377917607056614370000018339353287377524355_);}
	.st226{clip-path:url(#SVGID_00000071548349484317522500000007407938508870250646_);}
	.st227{fill:#181210;}
	.st228{fill:#E51636;}
	.st229{fill:#E31936;}
	.st230{clip-path:url(#SVGID_00000126317000768849612050000006777939154278344579_);}
	.st231{fill:#FFFFFF;}
	.st232{fill:#7814FF;}
	.st233{display:none;fill:#FFFFFF;}
	.st234{fill:#151D33;}
	.st235{fill:#FFD201;}
	.st236{fill:#343636;}
	.st237{clip-path:url(#SVGID_00000047756233338581728140000004073123257546184577_);}
	.st238{clip-path:url(#SVGID_00000116209988256993600980000003752110780242064291_);}
</style>
<g>
	<polygon points="278.87,0.09 263.79,11.6 256.5,37.57 264.95,49.53 289.4,49.53 284.42,67.49 264.23,67.49 266.61,58.95 
		250.56,58.95 247.16,71.47 255.84,83.32 284.2,83.32 299.35,71.63 306.56,45.42 298.04,33.57 273.62,33.57 278.55,15.83 
		298.64,15.83 296.24,24.46 312.34,24.46 315.98,11.6 307.6,0.09 	"/>
	<polygon points="340.16,0.09 325.01,11.6 308.38,71.55 317.12,83.32 345.48,83.32 360.66,71.55 365.33,54.63 349.29,54.63 
		345.73,67.49 325.57,67.49 339.96,15.74 360.06,15.74 356.44,28.79 372.45,28.79 377.29,11.6 369.01,0.09 	"/>
	<path d="M462.64,15.74h20.09l-7.48,26.88h-20.04L462.64,15.74z M451.03,0.09L427.9,83.32h16.03l6.9-24.93h13.05l2.99,24.93h15.68
		l-3.44-28.37l11.29-9.14l9.5-34.22l-8.41-11.5H451.03z"/>
	<polygon points="180.48,0.09 167.48,47.08 159.75,0.09 143.87,0.09 120.75,83.32 136.8,83.32 150.02,36.15 157.86,83.32 
		173.5,83.32 196.54,0.09 	"/>
	<path d="M217.3,15.74h20.2l-7.44,26.88h-20.19L217.3,15.74z M217.49,0.09l-14.96,11.42l-19.95,71.8h16.03l6.9-24.91h20.2
		l-6.9,24.91h15.97l19.95-71.72l-8.41-11.5L217.49,0.09L217.49,0.09z"/>
	<path d="M401.17,15.74h20.2l-7.44,26.88h-20.19L401.17,15.74z M401.35,0.09l-15.03,11.5l-19.88,71.73h16.02l6.9-24.91h20.2
		l-6.92,24.91h16.06l19.88-71.8l-8.41-11.42h-28.83L401.35,0.09z"/>
	<polygon class="st3" points="103.15,0.1 80.02,83.33 112.02,83.33 135.07,0.1 	"/>
	<polygon class="st4" points="57.27,0.13 34.12,83.43 49.56,83.43 72.63,0.13 	"/>
	<polygon class="st4" points="78.94,0.13 55.79,83.43 71.23,83.43 94.29,0.13 	"/>
	<polygon class="st5" points="23.24,0.13 0.1,83.43 9.69,83.43 32.75,0.13 	"/>
	<polygon class="st5" points="39,0.13 15.85,83.43 25.45,83.43 48.51,0.13 	"/>
</g>
</svg>
