<?xml version="1.0" encoding="utf-8"?>
<!-- Generator: Adobe Illustrator 25.4.1, SVG Export Plug-In . SVG Version: 6.00 Build 0)  -->
<svg version="1.1" id="Layer_1" xmlns="http://www.w3.org/2000/svg" xmlns:xlink="http://www.w3.org/1999/xlink" x="0px" y="0px"
	 viewBox="0 0 222.07 500" style="enable-background:new 0 0 222.07 500;" xml:space="preserve">
<style type="text/css">
	.st0{fill-rule:evenodd;clip-rule:evenodd;fill:#FFFFFF;}
	.st1{fill-rule:evenodd;clip-rule:evenodd;fill:#C8102E;}
	.st2{fill-rule:evenodd;clip-rule:evenodd;fill:#1D428A;}
</style>
<path class="st0" d="M222.07,43.01C222.07,19.27,202.8,0,179.06,0H43.01C19.27,0,0,19.27,0,43.01v413.98
	C0,480.73,19.27,500,43.01,500h136.05c23.74,0,43.01-19.27,43.01-43.01V43.01z"/>
<path class="st1" d="M145.95,14.26c-7.25,0-12.57,0.03-12.9,0.07l-0.8,0.11l1.74,0.75c2.29,0.98,4.83,2.5,6.18,3.7
	c0.6,0.53,1.57,1.69,2.16,2.57c0.82,1.23,1.24,1.66,1.8,1.86c1.77,0.61,3.09,2.02,4.27,4.54c0.91,1.94,1.24,3.81,1.24,7.02
	c0.01,4.45-1.01,8.45-3.44,13.53l-1.11,2.31l0.8,0.91c1.69,1.92,1.34,3.68-1.68,8.5c-0.72,1.14-1.52,2.51-1.79,3.03
	c-0.81,1.57-1.57,2.31-2.8,2.73l-1.12,0.38l-1.46,2.8c-3.54,6.78-6.22,10.39-8.49,11.44c-0.43,0.2-0.89,0.5-1.02,0.67
	c-0.4,0.52-0.74,1.9-0.73,3c0.02,1.95,0.14,2.08,3.92,3.93c3.87,1.89,6.78,3.6,8.65,5.05c1.18,0.92,1.28,1.06,1.28,1.83
	c0,0.68,0.1,0.9,0.58,1.19c1.66,1.03,3.03,1.94,4.36,2.92c0.82,0.6,2.75,1.93,4.29,2.96c3.59,2.39,5.51,3.94,7.73,6.25
	c7,7.27,10.85,17.93,11.91,32.94c0.12,1.67,0.21,5.6,0.22,8.73l0,5.7l0.72,2.88c0.74,2.96,1.5,6.89,2.63,13.66
	c0.78,4.66,1.54,8.32,2.12,10.21c0.24,0.77,1.56,3.71,2.95,6.53c3.22,6.56,4.3,9.05,5.58,12.87c1.03,3.08,1.88,6.82,2.21,9.73
	c0.83,7.35,2.04,13.21,2.94,14.19c0.14,0.15,1.32,0.55,2.64,0.9c1.32,0.34,2.98,0.9,3.69,1.23c1.23,0.57,1.34,0.69,1.99,2.04
	l0.69,1.43l2.41,1.22c1.33,0.67,2.67,1.47,3,1.78c0.77,0.73,1.35,1.87,1.52,3c0.08,0.5,0.43,1.33,0.79,1.85
	c1.42,2.07,3.54,6.02,3.74,6.97c0.03,0.14,0.08-43.64,0.11-97.29c0.06-107.22,0.15-99.62-1.2-104.84
	c-1.11-4.32-3.01-8.51-5.54-12.26c-6.19-9.16-15.62-15.13-27.01-17.1c-1.87-0.32-4.19-0.37-21.98-0.41
	C151.01,14.26,148.37,14.25,145.95,14.26L145.95,14.26L145.95,14.26z M142.94,146.88c-1.04,0-8.5,4.48-12.88,7.72
	c-1.68,1.25-1.93,1.53-2.62,2.91c-1.06,2.13-5.06,12.15-9.25,23.17l-1.91,5.02l-0.08,2.35c-0.07,2.17-0.05,2.36,0.31,2.36
	c0.59,0,2.37,1.11,3.43,2.13c2.1,2.03,3.39,4.59,5.08,10.11c1.34,4.36,4.56,15.63,7.27,25.43l2.75,9.92l0.86,3.12l-1.22,1.17
	l-1.22,1.17l0.49,1.78l1.09,3.98c3.9,14.24,5.71,24.61,7.5,43.01c0.86,8.78,1.5,11.83,3.54,16.75c1.98,4.76,4.12,8.99,6.82,13.48
	c3.84,6.38,6.02,10.94,7.24,15.15c1.22,4.19,2.77,12.06,4.57,23.06c2.35,14.41,3.18,19.23,3.54,20.59c0.33,1.27,0.68,1.88,2.36,4.16
	c2.86,3.88,3.53,4.91,4.95,7.59c2.3,4.36,2.88,6.99,2.26,10.26c-0.18,0.98-0.72,3.33-1.18,5.23c-2.22,9.06-2.63,13.39-1.69,17.6
	c0.12,0.52,0.59,3.27,1.06,6.1c0.94,5.72,1.55,8.12,2.36,9.3c0.71,1.04,1.41,3.17,1.41,4.29c0,0.49-0.19,1.31-0.42,1.81
	s-0.42,1.06-0.42,1.23c0,0.18,0.94,3.16,2.08,6.62c1.15,3.47,2.32,7.15,2.61,8.19c2.31,8.22,2.26,14.88-0.14,19.67
	c-1.65,3.29-3.69,5.49-7.4,8.01c-0.33,0.23-0.24,0.25,0.65,0.14c1.39-0.17,3.97-0.82,6.23-1.58c5.83-1.96,11.67-5.79,16.08-10.55
	c5.65-6.09,9.33-14.19,10.23-22.54c0.15-1.39,0.22-30.63,0.22-93.14l0-91.11l-0.67,1.47c-0.86,1.88-2.9,5.32-4.06,6.83
	c-3.34,4.36-7.92,8.07-12.9,10.44c-11.71,5.58-25.34,4.41-35.95-3.09c-2.54-1.79-6.4-5.66-8.21-8.21
	c-7.38-10.43-8.63-23.94-3.28-35.54c4.03-8.74,12.08-15.87,21.12-18.68c1.21-0.38,2.28-0.76,2.38-0.85
	c0.24-0.21-0.26-1.45-3.03-7.52c-2.2-4.84-5.1-10.83-9.87-20.42c-2.61-5.25-3-6.39-4.54-13.28c-1.48-6.59-3.92-19.16-6.09-31.29
	C143.4,146.67,143.46,146.88,142.94,146.88L142.94,146.88L142.94,146.88z"/>
<path class="st2" d="M84.75,14.18c-16.98,0.01-34.28,0.08-35.7,0.21c-9.48,0.86-17.62,4.53-24.32,10.98
	c-6.47,6.23-10.22,13.4-11.9,22.72c-0.33,1.86-0.36,14.69-0.43,202.09c-0.05,135.94,0,201.34,0.15,203.97
	c0.59,10.57,4.3,18.96,11.62,26.28c6.9,6.9,15.58,10.9,25.19,11.59c2.85,0.21,120.19,0.26,120.18,0.06c0-0.08-0.58-0.53-1.28-0.99
	c-2.64-1.74-4.75-4.63-5.53-7.56c-0.94-3.56-0.88-7.59,0.22-16.72c0.97-7.98,1.56-14.33,1.7-18.22l0.14-3.84l-1.13-1.22
	c-2.4-2.6-2.88-4.52-1.79-7.11c0.3-0.72,0.55-1.53,0.55-1.8c0-0.76-1.12-4.36-2.16-6.94c-1.21-3.01-3.02-6.6-5.82-11.55
	c-4.02-7.1-4.83-9.01-4.86-11.37c-0.01-1.48,0.27-2.23,1.32-3.42l0.62-0.71l-0.6-1.76c-0.79-2.32-1.61-4.35-3.27-8.09l-1.37-3.09
	l-1.9-1.13c-7.67-4.56-16.99-11.62-26.12-19.8c-2.71-2.43-7.53-7.08-11.52-11.09c-2.48-2.49-6.29-6.11-8.48-8.04
	c-3.9-3.43-5.37-4.94-6.03-6.2c-0.18-0.34-0.87-1.24-1.53-1.99c-8.5-9.63-27.62-37.83-34.01-50.15c-0.71-1.37-1.31-2.51-1.33-2.54
	c-0.02-0.03-2.28-0.37-5.02-0.77c-2.74-0.4-5.05-0.8-5.13-0.89s-0.5-1.34-0.92-2.76c-1.66-5.59-3.78-10.28-9.85-21.8
	c-8.66-16.43-10.91-24.71-9.64-35.48c0.82-6.9,3.11-17.76,4.28-20.22c0.7-1.48,2.32-3.48,4.81-5.92l2.32-2.29v-5.09l-5.6-0.01
	c-7.42-0.01-9.54-0.32-11.1-1.66c-0.94-0.8-1.11-1.24-1.94-4.88c-0.24-1.07-0.78-2.77-1.18-3.77c-1.63-4.02-1.74-5.59-0.6-9.17
	c0.4-1.25,0.87-2.88,1.06-3.62c1.68-6.61,5.93-16.64,14.13-33.4c1.41-2.88,2.87-6.13,3.25-7.22c2.51-7.24,4.88-12.98,7.36-17.79
	c5.48-10.63,9.68-16.98,14.01-21.15c2.22-2.14,3.88-3.29,6.43-4.5c3.47-1.63,6.04-2.15,14.47-2.92l5.65-0.52l0.63-0.72l0.63-0.72
	l2.72-0.13c9.01-0.43,12.26-1.57,13.8-4.82c0.76-1.61,1.1-3.35,1.9-9.92c0.4-3.3,0.76-6.14,0.78-6.31c0.03-0.19-0.09-0.29-0.31-0.25
	c-1.92,0.32-3.53-3.95-3.59-9.48c-0.05-4.49,0.61-5.5,3.71-5.73l1.7-0.13l0.05-1.57c0.1-3.42,0.53-8.39,0.91-10.66
	c0.89-5.23,2.07-7.79,4.89-10.58c2.05-2.03,4.12-3.39,7.16-4.68c1.06-0.45,1.64-0.8,1.49-0.9c-0.21-0.13-16.89-0.18-33.87-0.17
	L84.75,14.18L84.75,14.18z M37.47,394.93h13.35l0.33,1.83c0.18,1.01,0.81,4.47,1.39,7.69c0.58,3.22,1.43,7.93,1.89,10.47
	c0.45,2.53,1.67,9.27,2.71,14.97c1.03,5.7,2.37,13.07,2.97,16.38c0.59,3.31,1.12,5.98,1.16,5.94c0.07-0.07-0.25-5.56-0.67-11.75
	c-0.15-2.27-0.29-4.59-0.43-7.22c-0.07-1.32-0.16-2.97-0.21-3.66c-0.05-0.69-0.14-3-0.21-5.13c-0.07-2.13-0.17-4.34-0.22-4.92
	c-0.05-0.58-0.15-6.34-0.22-12.82l-0.13-11.77h8.63v72.21H55.56l-1.01-5.5c-0.56-3.02-1.7-9.21-2.55-13.76
	c-0.84-4.55-2.16-11.66-2.92-15.8c-1.98-10.8-2.99-16.18-3.57-19.05l-0.51-2.51l0.1,1.99c0.05,1.09,0.19,4.77,0.31,8.16
	s0.26,7.3,0.31,8.69c0.07,1.8,0.17,32.95,0.11,37.41c0,0.34-0.34,0.37-4.19,0.37h-4.19L37.47,394.93L37.47,394.93z M74.51,394.93
	l7.69,0c4.23,0,8.3,0.1,9.05,0.21c4.52,0.7,7.74,3.23,9.19,7.24c1,2.76,1.11,4.15,1.02,13.48c-0.07,7.21-0.14,8.67-0.44,9.73
	c-0.6,2.09-1.39,3.48-2.74,4.82l-1.28,1.26l1.17,1.15c1.36,1.34,2.12,2.63,2.77,4.69c0.45,1.43,0.47,1.77,0.47,10.27
	c0,9.83-0.02,10-1.53,13.08c-1.4,2.86-3.83,4.79-7.28,5.79c-1.05,0.3-2.52,0.37-9.67,0.44l-8.43,0.1L74.51,394.93L74.51,394.93z
	 M113.25,394.93h13.76l0.12,0.78c0.07,0.43,0.64,5.31,1.28,10.83c0.64,5.53,1.95,16.88,2.93,25.22c3.73,32.07,4.08,35.04,4.08,35.21
	c0,0.08-2.26,0.17-5.02,0.17h-5.01l-0.11-0.68c-0.06-0.38-0.3-3.13-0.53-6.12c-0.23-2.99-0.48-5.98-0.55-6.65l-0.12-1.2h-4.27
	c-4.26,0-4.27,0-4.36,0.47c-0.05,0.26-0.3,3.01-0.54,6.12c-0.24,3.11-0.5,6.19-0.56,6.86l-0.12,1.2h-9.57v-0.63
	c0-0.52,1.43-12.65,2.83-23.97c0.17-1.38,1.39-11.55,2.72-22.6c2.74-22.87,2.8-23.41,2.95-24.33L113.25,394.93L113.25,394.93
	L113.25,394.93z M119.54,403.03l-0.1,0.07c-0.05,0.05-0.14,0.94-0.21,1.97c-0.07,1.04-0.18,2.5-0.24,3.25
	c-0.06,0.75-0.39,5.13-0.73,9.73c-0.34,4.61-0.96,12.26-1.38,17.01c-0.41,4.75-0.71,8.75-0.65,8.9c0.07,0.19,1.02,0.26,3.56,0.26
	c1.9,0,3.52-0.05,3.58-0.12c0.07-0.07-0.16-3.27-0.5-7.12C120.13,406.11,119.85,403.03,119.54,403.03L119.54,403.03z M84.14,404.1
	v11.81c0,6.49,0.04,11.85,0.09,11.89c0.05,0.05,1.25,0.05,2.67,0.02c2.97-0.08,3.7-0.33,4.41-1.47l0.47-0.75v-9.52
	c0-9.15-0.02-9.55-0.42-10.23c-0.83-1.42-1.28-1.58-4.41-1.66L84.14,404.1L84.14,404.1L84.14,404.1z M84.14,435.69v22.24h2.47
	c2.99,0,4.03-0.39,4.74-1.78c0.41-0.81,0.43-1.17,0.43-9.42c0-8.24-0.02-8.61-0.42-9.31c-0.69-1.19-1.68-1.54-4.65-1.64l-2.56-0.06
	V435.69L84.14,435.69z"/>
</svg>
