<svg width="110" height="110" fill="none" xmlns="http://www.w3.org/2000/svg"><path d="M105.468 0H23.793L4.532 110l44.401-15.708 37.285 15.312L105.468 0Z" fill="#fff"/><path d="M26.642 3.388 25.63 9.174h74.783l1.018-5.786h-74.79Z" fill="#0060A8"/><path d="M56.677 42.801h-.748l-.55.055h-.23c6.05 5.654 10.097 12.853 11.51 15.593l.55-.308.061-.033 2.255-1.32.193-.11.412-.242.226-.133.467-.269.121-.072-.418.242c-4.884-6.093-6.32-13.574-13.838-13.469" fill="#182D4D"/><path d="m45.32 41.58.138.072c6.127 3.25 9.867 9.03 13.574 21.053 1.452-.72 2.909-1.506 4.339-2.304-1.485-3.669-5-11.314-10.582-17.413h-.072a9.268 9.268 0 0 0 2.36-.055c8.938-1.243 10.225 6.837 15.439 13.337a41.43 41.43 0 0 1 3.816-2.062c-5.45-7.073-11.852-15.064-17.203-15.213a11.368 11.368 0 0 1-11.308-17.99 11.37 11.37 0 0 0-.501 20.575" fill="#C4C6C9"/><path d="M99.798 12.749h-74.8L8.872 104.874l33.027-11.687c-1.545-10.242-5.56-17.881 3.119-23.997a30.754 30.754 0 0 1 8.118-3.971 46.264 46.264 0 0 0 5.896-2.519c-3.707-12.023-7.447-17.803-13.58-21.054l-.137-.077a11.368 11.368 0 1 1 14.949-4.527c5.417 2.613 13.92 9.994 20.8 20.163C79.03 63.752 69.79 69.201 62.64 73.085c1.545 7.854.462 16.5.462 23.353l20.498 8.437 16.198-92.125Z" fill="#182D4D"/><path d="M58.184 75.499c7.018-3.85 20.383-10.247 22.886-18.282-6.287 9.18-21.22 11.071-22.886 18.282Z" fill="#C4C6C9"/><path d="M47.652 64.955c1.859-.682 2.167-6.287.143-11.798-2.024-5.51-6.485-8.41-10.225-7.15-3.74 1.26-6.407 5.275-3.624 10.857 3.333 6.677 11.203 9.004 13.706 8.085" fill="#fff"/><path d="M47.652 64.955c.737-.27 1.226-1.326 1.424-2.844-3.597.55-11.78-1.65-15.18-7.733a9.347 9.347 0 0 1-1.04-2.75 9.284 9.284 0 0 0 1.1 5.264c3.334 6.677 11.204 9.003 13.707 8.085l-.011-.022Zm5.582 17.275c-8.25 5.467-16.747-6.286-8.211-13.046-8.68 6.122-4.67 13.75-3.119 23.997l7.739-2.75a27.5 27.5 0 0 1 3.597-8.212" fill="#C4C6C9"/></svg>