<svg width="110" height="110" fill="none" xmlns="http://www.w3.org/2000/svg"><g clip-path="url(#a)"><path d="M105.539-.094H23.864l-19.26 110 44.4-15.708L86.29 109.51 105.54-.094Z" fill="#fff"/><path d="m83.682 104.775-34.59-14.207-40.149 14.207 16.132-92.12h74.794l-16.187 92.12Z" fill="#182D4D"/><path d="M25.075 12.567 10.57 94.446l-1.65 10.329L48.653 90.75l35.03 14.052 1.385-8.948L99.87 12.567H25.075Z" fill="#182D4D"/><path d="m49.23 90.959-.049-.28c-1.342-6.1-3.3-14.614-5.5-19.52-7.15.55-13.277 4.95-21.708 1.71 1.815-6.082 2.475-11.61 4.477-16.197a11 11 0 0 1-6.402-3.212 11 11 0 0 1 9.548-9.526c1.936-1.49 7.7-.077 8.019 2.172.422.323.821.676 1.193 1.056a11 11 0 0 1-4.554 7.59 22.823 22.823 0 0 0-3.591 10.803 17.532 17.532 0 0 1 5.225-1.832c-.55-5.934 10.103-8.178 20.9-8.624 10.917-.445 22 .979 21.34 5.704 9.669 3.657 8.47 12.314 8.47 12.314-5.126 1.936-8.949 1.144-12.326-.468-1.166 6.111-.654 17.05 1.727 29.183L49.231 90.959Z" fill="#fff"/><path d="M50.479 55.589a10.114 10.114 0 0 0 4.857 5.736 14.684 14.684 0 0 1 6.864-6.287c-1.772-.038-3.592 0-5.407.061-2.14.088-4.273.248-6.314.49Zm9.3 4.152c1.397.704 3.196 2.2 2.706 3.85-.489 1.65-3.118 1.034-3.431 2.613 10.037-.55 14.679 11.753 27.549 6.886-2.722-6.447-10.191-7.772-10.191-7.772a4.73 4.73 0 0 1-3.51.621c-4.553-.956-8.392-8.007-13.123-6.231v.033ZM22 72.87c8.426 3.255 14.564-1.145 21.703-1.711 2.2 4.906 4.207 13.7 5.55 19.8l13.997 5.61a87.302 87.302 0 0 0-6.138-18.656 22.524 22.524 0 0 1-3.85-.456c-4.664-9.95-10.752-13.904-15.185-13.332a8.948 8.948 0 0 1 3.63 3.344c-5.825 3.096-13.2 3.135-13.2 3.135a9.729 9.729 0 0 1 2.2-5.05 22.803 22.803 0 0 1 3.591-10.802 11 11 0 0 0 4.548-7.579 20.174 20.174 0 0 1-18.754 6.282 11 11 0 0 0 6.363 3.195c-2.007 4.587-2.662 10.114-4.477 16.197" fill="#C4C6C9"/><path d="M51.43 50.737c1.457 0 2.896.315 4.219.924h.055a2.52 2.52 0 0 0 3.3-3.245c-.055-.11-.11-.22-.16-.33a4.909 4.909 0 0 1-.181-.495l3.3.066.176.473c.858 2.31 1.48 4.087 6.308 3.74a.264.264 0 0 0 .242-.22c.38-2.31.682-4.29.787-4.95a.22.22 0 0 0-.22-.258c-2.156 0-4.494.044-6.474.071-.55-1.342-1.1-2.849-1.474-3.773a10.154 10.154 0 0 1 4.95-.687 9.619 9.619 0 1 0-16 8.75c.39-.044.781-.066 1.172-.066Zm16.544-2.926-.45 2.75c-2.08.21-3.152-.126-3.972-2.167l-.27-.676 4.692.104v-.01Zm-9.35-2.156a4.021 4.021 0 0 1 1.771-2.381c.27.742.732 2.018 1.194 3.267l-3.058.05c-.01-.317.02-.633.093-.941" fill="#fff"/><path d="M57.365 47.586c-.128.24-.295.458-.495.644a1.842 1.842 0 0 1-.786.428 2.25 2.25 0 0 1-.66.066 1.21 1.21 0 0 0 .616-.291c.6-.55.764-1.535-.231-2.349-1.188-.979-2.871-.753-3.262-.368-.225.22-.033.907.451 1.606a9.117 9.117 0 0 1-.594-.434 9.598 9.598 0 0 1-3.707-7.585c0-.231 0-.462.028-.693a9.597 9.597 0 0 0 1.545 12.199c.389-.046.78-.07 1.172-.072a10.058 10.058 0 0 1 4.218.924h.055a2.52 2.52 0 0 0 3.3-3.245c-.055-.11-.11-.22-.16-.33a4.3 4.3 0 0 1-.175-.494h-1.326" fill="#C4C6C9"/><path d="m26.713 3.295-1.012 5.791h74.784l1.018-5.791h-74.79Z" fill="#0060A8"/></g><defs><clipPath id="a"><path fill="#fff" d="M0 0h110v110H0z"/></clipPath></defs></svg>