<?xml version="1.0" encoding="utf-8"?>
<!-- Generator: Adobe Illustrator 25.4.1, SVG Export Plug-In . SVG Version: 6.00 Build 0)  -->
<svg version="1.1" id="Layer_1" xmlns="http://www.w3.org/2000/svg" xmlns:xlink="http://www.w3.org/1999/xlink" x="0px" y="0px"
	 viewBox="0 0 348.38 479.1" style="enable-background:new 0 0 348.38 479.1;" xml:space="preserve">
<style type="text/css">
	.st0{fill:#FFFFFF;}
	.st1{fill:#013369;}
	.st2{fill:#D50A0A;}
</style>
<g>
	<path class="st0" d="M336.92,54.41c-15.04,10.73-43.62,25.49-80.54,16.4C192.5,55.01,174.19,0,174.19,0s-18.31,55.15-82.18,70.81
		c-36.92,9.09-65.51-5.52-80.54-16.4H0V351.5c0,7.45,1.79,22.36,14,37.12c15.04,18.33,40.5,30.11,75.78,35.18
		c28.14,4.02,48.83,12.97,63.42,26.98c10.72,10.43,20.99,28.32,20.99,28.32s10.57-18.33,20.99-28.32
		c14.59-14.16,35.43-22.96,63.42-26.98c35.29-5.07,60.74-16.99,75.78-35.18c12.21-14.76,13.99-29.67,13.99-37.12V54.41
		C348.38,54.41,336.92,54.41,336.92,54.41z"/>
	<path class="st1" d="M337.96,66.04c0,0-34.99,27.28-84.12,14.91c-57.32-14.31-79.65-57.39-79.65-57.39s-22.33,43.08-79.65,57.39
		C45.41,93.32,10.42,66.04,10.42,66.04V351.5c0,9.69,4.02,50.83,80.84,62.01c30.37,4.32,53,14.16,69.23,29.81
		c5.81,5.67,10.27,11.33,13.7,16.55c3.42-5.22,7.89-11.03,13.7-16.55c16.23-15.65,38.86-25.49,69.23-29.81
		c76.82-11.18,80.84-52.32,80.84-62.01L337.96,66.04L337.96,66.04z"/>
	<path class="st0" d="M174.19,430.96c0,0,22.33-27.43,80.1-36.37c66.25-10.29,64.32-41.44,64.32-42.93V201.99H29.63V351.5
		c0,1.64-1.93,32.79,64.32,42.93C151.86,403.38,174.19,430.96,174.19,430.96L174.19,430.96z"/>
	<path class="st2" d="M106.9,311.25v-71.11l-8.93-5.07V216.6h40.5v18.48l-8.49,5.07v145.04l-21.74-6.56l-31.41-92.72v61.12l9.98,7.6
		v18.78l-43.47-11.03v-16.1l9.97-3.88V240l-10.12-4.92V216.6h32.9L106.9,311.25L106.9,311.25z M181.48,376.25l8.64,10.43v18.48
		l-43.18-16.1v-15.65l9.53-3.88V240.3l-9.53-4.77v-18.63h74.89v37.57h-16.53l-5.06-15.35h-19.06v43.38h14.29l5.66-8.2h11.46v38.31
		h-11.46l-5.36-7.75h-14.59v71.4L181.48,376.25L181.48,376.25z M229.13,382.81v-18.48l10.72-8.8V240.15l-9.08-4.77v-18.63h43.17
		v18.63l-8.49,4.77v108.22l18.61-5.07l3.57-28.32h17.57v47.4L229.13,382.81L229.13,382.81z"/>
	<path class="st0" d="M37.22,171.28l-13.1-9.84h15.93l5.21-15.21l5.21,15.21H66.4l-13.1,9.84l4.76,15.35l-12.95-9.09l-12.95,9.09
		L37.22,171.28L37.22,171.28z M93.94,171.28l-13.1-9.84h15.93l5.21-15.21l5.21,15.21h15.93l-13.1,9.84l4.76,15.35l-12.95-9.09
		l-12.95,9.09L93.94,171.28L93.94,171.28z M37.22,120.15l-13.1-9.84h15.93l5.21-15.21l5.21,15.21H66.4l-13.1,9.84l4.76,15.35
		l-12.95-9.09l-12.95,9.09L37.22,120.15L37.22,120.15z M93.94,120.15l-13.1-9.84h15.93l5.21-15.21l5.21,15.21h15.93l-13.1,9.84
		l4.76,15.35l-12.95-9.09l-12.95,9.09L93.94,120.15L93.94,120.15z M315.92,186.78l-12.95-9.09l-12.95,9.09l4.76-15.35l-13.1-9.84
		h16.08l5.21-15.21l5.21,15.21h15.93l-13.1,9.84L315.92,186.78L315.92,186.78z M259.35,186.78l-12.95-9.09l-12.95,9.09l4.76-15.35
		l-13.1-9.84h15.93l5.21-15.21l5.21,15.21h15.93l-13.1,9.84L259.35,186.78L259.35,186.78z M315.92,135.5l-12.95-9.09l-12.95,9.09
		l4.76-15.35l-13.1-9.84h16.08l5.21-15.21l5.21,15.21h15.93l-13.1,9.84L315.92,135.5L315.92,135.5z M259.35,135.5l-12.95-9.09
		l-12.95,9.09l4.76-15.35l-13.1-9.84h15.93l5.21-15.21l5.21,15.21h15.93l-13.1,9.84L259.35,135.5L259.35,135.5z M210.22,79.01
		c1.34-0.15,2.08,1.49,2.83,2.53c5.66,14.31,7.15,31.75,2.83,48.45c-6.55,25.49-27.99,48.89-73.99,54.86
		c-1.04,0.15-2.23-0.15-2.38-0.74c2.08-9.69,7.29-28.17,18.46-47.7c2.08,1.34,4.17,2.68,6.1,4.17c0.74-1.19,1.64-2.53,2.98-4.77
		c-5.66-4.47-12.21-7.6-19.5-8.94c0,0-1.34,2.83-2.38,4.92c0,0,2.83,0.6,6.25,1.79c-9.98,21.17-13.4,40.85-14.29,49.79
		c-2.83-4.47-5.06-14.91-5.81-20.57c-7.29-53.66,31.26-84.97,73.25-85.56c2.83-0.15,3.87,0.45,3.87,0.45s-9.23,3.43-19.95,11.63
		c0,0-2.53-1.04-5.21-1.79c-1.64,1.04-3.42,2.24-5.06,3.43c5.06,1.19,11.46,3.73,17.57,8.79c1.34-1.19,2.68-2.53,4.17-3.88
		c-1.49-1.19-3.87-2.83-5.95-4.03C203.52,82.58,210.22,79.01,210.22,79.01L210.22,79.01z M170.62,129.69
		c1.04-1.49,2.23-3.28,3.42-5.07c-4.76-4.02-11.61-7.9-19.95-9.54c-1.19,1.79-3.27,5.22-3.27,5.22
		C157.66,121.64,164.66,124.77,170.62,129.69L170.62,129.69z M178.21,119.1c1.19-1.64,2.38-3.13,3.72-4.77
		c-6.55-5.37-13.99-8.5-19.8-9.54c-1.34,1.49-2.68,3.13-3.87,4.62C165.85,110.91,172.7,114.48,178.21,119.1L178.21,119.1z
		 M186.69,108.97c1.19-1.49,2.53-2.83,4.17-4.32c-4.02-3.28-9.83-7.15-18.46-9.24c-1.49,1.19-3.27,2.53-4.91,4.17
		C174.34,101.07,180.89,104.2,186.69,108.97L186.69,108.97z"/>
</g>
</svg>
