<?xml version="1.0" encoding="utf-8"?>
<!-- Generator: Adobe Illustrator 25.4.1, SVG Export Plug-In . SVG Version: 6.00 Build 0)  -->
<svg version="1.1" id="Layer_1" xmlns="http://www.w3.org/2000/svg" xmlns:xlink="http://www.w3.org/1999/xlink" x="0px" y="0px"
	 viewBox="0 0 364.69 500" style="enable-background:new 0 0 364.69 500;" xml:space="preserve">
<style type="text/css">
	.st0{fill-rule:evenodd;clip-rule:evenodd;fill:#1A3B73;}
	.st1{fill-rule:evenodd;clip-rule:evenodd;fill:#FFFFFF;}
	.st2{fill-rule:evenodd;clip-rule:evenodd;fill:#CF4044;}
	.st3{fill:#007AC2;}
	.st4{fill:#E4002B;}
	.st5{fill:#FFD659;}
	.st6{clip-path:url(#SVGID_00000110439169131909209570000007994134650455452811_);}
	.st7{fill:#00509D;}
	.st8{fill:#2EBAE8;}
	.st9{fill:#00B3E5;}
	.st10{fill:#00AFE3;}
	.st11{fill:#0070B8;}
	.st12{fill:#009ED8;}
	.st13{fill:#00A3DB;}
	.st14{fill:#008ACB;}
	.st15{fill:#006DB5;}
	.st16{fill:#0074BA;}
	.st17{fill:#0089CA;}
	.st18{fill:#0065AE;}
	.st19{fill:#0072B9;}
	.st20{fill:#0065AF;}
	.st21{fill:#009FD8;}
	.st22{fill:#0078BD;}
	.st23{fill:#0079BF;}
	.st24{fill:#00A0D9;}
	.st25{fill:#0080C3;}
	.st26{fill:#0098D4;}
	.st27{fill:#008ACA;}
	.st28{fill:#008DCD;}
	.st29{fill:#00A4DC;}
	.st30{fill:#0083C6;}
	.st31{fill:#0086C8;}
	.st32{fill:#009CD6;}
	.st33{fill:#009DD7;}
	.st34{fill:#00A6DD;}
	.st35{fill:#009CD7;}
	.st36{fill:#00A9DF;}
	.st37{fill:#00A2DA;}
	.st38{fill:#00519D;}
	.st39{fill:#0087C8;}
	.st40{fill:#006CB4;}
	.st41{fill:#0086C7;}
	.st42{fill:#009AD5;}
	.st43{fill:#007DC1;}
	.st44{fill:#00A5DC;}
	.st45{fill:#00A2DB;}
	.st46{fill:#00A5DD;}
	.st47{fill:#00A8DF;}
	.st48{fill:#0094D1;}
	.st49{fill:#00A6DE;}
	.st50{fill:#00A1DA;}
	.st51{fill:#00A7DE;}
	.st52{fill:#00A8DE;}
	.st53{fill:#00AAE0;}
	.st54{fill:#0090CE;}
	.st55{fill:#009BD6;}
	.st56{fill:#00A9E0;}
	.st57{fill:#008CCC;}
	.st58{fill:#0082C5;}
	.st59{fill:#007FC3;}
	.st60{fill:#0081C4;}
	.st61{fill:#00ABE1;}
	.st62{fill:#007EC2;}
	.st63{fill:#007FC2;}
	.st64{fill:#0096D2;}
	.st65{fill:#0096D3;}
	.st66{fill:#00B1E4;}
	.st67{fill:#04B5E6;}
	.st68{fill:#1FB8E7;}
	.st69{fill:#26B9E8;}
	.st70{fill:#00A7DD;}
	.st71{fill:#00ABE0;}
	.st72{fill:#009FD9;}
	.st73{fill:#00B0E3;}
	.st74{fill:#0AB7E7;}
	.st75{fill:#00B4E5;}
	.st76{fill:#00B5E6;}
	.st77{fill:#20B7E7;}
	.st78{fill:#29B8E7;}
	.st79{fill:#15B7E7;}
	.st80{fill:#32BAE8;}
	.st81{fill:#00ACE1;}
	.st82{fill:#00B2E4;}
	.st83{fill:#38BBE9;}
	.st84{fill:#42BFEB;}
	.st85{fill:#00B2E5;}
	.st86{fill:#35BBE8;}
	.st87{fill:#0093D0;}
	.st88{fill:#008BCB;}
	.st89{fill:#008CCB;}
	.st90{fill:#0092D0;}
	.st91{fill:#008ECD;}
	.st92{fill:#00A4DB;}
	.st93{fill:#0085C7;}
	.st94{fill:#0088C9;}
	.st95{fill:#0083C5;}
	.st96{fill:#0093D1;}
	.st97{fill:#007ABF;}
	.st98{fill:#0095D2;}
	.st99{fill:#008DCC;}
	.st100{fill:#0079BE;}
	.st101{fill:#0077BD;}
	.st102{fill:#0076BC;}
	.st103{fill:#0074BB;}
	.st104{fill:#006FB7;}
	.st105{fill:#00ACE2;}
	.st106{fill:#00AEE2;}
	.st107{fill:#0097D3;}
	.st108{fill:#48BFEA;}
	.st109{fill:#007CC1;}
	.st110{fill:#29BAE9;}
	.st111{fill:#0099D4;}
	.st112{fill:#0099D5;}
	.st113{fill:#33BCEA;}
	.st114{fill:#36BCEA;}
	.st115{fill:#00B1E3;}
	.st116{fill:#49C1EB;}
	.st117{fill:#39BDEA;}
	.st118{fill:#30BCE9;}
	.st119{fill:#00AFE2;}
	.st120{fill:#33B7E6;}
	.st121{fill:#4BC1EC;}
	.st122{fill:#34BBE9;}
	.st123{fill:#3BBDEA;}
	.st124{fill:#43BEEA;}
	.st125{fill:#00ADE2;}
	.st126{fill:#07B5E6;}
	.st127{fill:#3FBDEA;}
	.st128{fill:#54C2EB;}
	.st129{fill:#28B9E8;}
	.st130{fill:#41BEEA;}
	.st131{fill:#2BB7E6;}
	.st132{fill:#54C1EB;}
	.st133{fill:#59C4EC;}
	.st134{fill:#58C2EB;}
	.st135{fill:#4CC0EB;}
	.st136{fill:#50C1EB;}
	.st137{fill:#47BFEB;}
	.st138{fill:#21B7E7;}
	.st139{fill:#55C3EC;}
	.st140{fill:#67C7ED;}
	.st141{fill:#59C3EC;}
	.st142{fill:#56C2EC;}
	.st143{fill:#5FC4EC;}
	.st144{fill:#6DC8EE;}
	.st145{fill:#64C5ED;}
	.st146{fill:#51BFEA;}
	.st147{fill:#62C5EC;}
	.st148{fill:#3EBEEA;}
	.st149{fill:#69C6ED;}
	.st150{fill:#0075BC;}
	.st151{fill:#008FCE;}
	.st152{fill:#31B5E5;}
	.st153{fill:#4DBCE8;}
	.st154{fill:#006EB6;}
	.st155{fill:#009AD6;}
	.st156{fill:#74CBEF;}
	.st157{fill:#56BFE9;}
	.st158{fill:#66C5EC;}
	.st159{fill:#70CAEE;}
	.st160{fill:#59C0EA;}
	.st161{fill:#61C3EB;}
	.st162{fill:#60C2EB;}
	.st163{fill:#52BEE9;}
	.st164{fill:#65C6ED;}
	.st165{fill:#3BB6E5;}
	.st166{fill:#27B2E3;}
	.st167{fill:#0071B9;}
	.st168{fill:#007CC0;}
	.st169{fill:#31B6E5;}
	.st170{fill:#00AADF;}
	.st171{fill:#3EB9E7;}
	.st172{fill:#008FCD;}
	.st173{fill:#007BBF;}
	.st174{fill:#4CBDE9;}
	.st175{fill:#03B1E3;}
	.st176{fill:#1FB3E4;}
	.st177{fill:#73CBEF;}
	.st178{fill:#00ADE1;}
	.st179{fill:#00A0DA;}
	.st180{fill:#009DD8;}
	.st181{fill:#01B1E3;}
	.st182{fill:#14B0E2;}
	.st183{fill:#009ED7;}
	.st184{fill:#0084C6;}
	.st185{fill:#0082C4;}
	.st186{fill:#25B5E5;}
	.st187{fill:#0091CF;}
	.st188{fill:#0075BB;}
	.st189{fill:#009BD5;}
	.st190{fill:#0098D3;}
	.st191{fill:#006CB5;}
	.st192{fill:#5CC2EB;}
	.st193{fill:#3CBCE9;}
	.st194{fill:#61C4EC;}
	.st195{fill:#0090CF;}
	.st196{fill:#44BDEA;}
	.st197{fill:#005CA6;}
	.st198{fill:#5BC3EC;}
	.st199{fill:#0073BA;}
	.st200{fill:#006BB3;}
	.st201{fill:#0058A3;}
	.st202{fill:#0057A3;}
	.st203{fill:#0092CF;}
	.st204{fill:#00529F;}
	.st205{fill:#006AB2;}
	.st206{fill:#0072BA;}
	.st207{fill:#0056A1;}
	.st208{fill:#0080C4;}
	.st209{fill:#007CBF;}
	.st210{fill:#005DA7;}
	.st211{fill:#0062AC;}
	.st212{fill:#0070B7;}
	.st213{fill:#0079BD;}
	.st214{fill:#0072B8;}
	.st215{fill:#007ABE;}
	.st216{clip-path:url(#SVGID_00000137822252821115443580000001494144999510417294_);}
	.st217{fill:#007BC0;}
	.st218{fill:#0078BE;}
	.st219{fill:#0087C9;}
	.st220{fill:#0089C9;}
	.st221{fill:#0088C8;}
	.st222{fill:#0095D1;}
	.st223{fill:#00A3DC;}
	.st224{clip-path:url(#SVGID_00000145025570938806094320000010040383839757329593_);}
	.st225{clip-path:url(#SVGID_00000036947589895552235390000006801343677166697632_);}
	.st226{clip-path:url(#SVGID_00000176733174946445529760000001137614687713604252_);}
	.st227{fill:#181210;}
	.st228{fill:#E51636;}
	.st229{fill:#E31936;}
	.st230{clip-path:url(#SVGID_00000078732163138623361790000001478190921174491531_);}
	.st231{fill:#FFFFFF;}
	.st232{fill:#7814FF;}
	.st233{display:none;fill:#FFFFFF;}
	.st234{fill:#151D33;}
	.st235{fill:#FFD201;}
	.st236{fill:#343636;}
	.st237{clip-path:url(#SVGID_00000114786029448635824040000006063455135779354009_);}
	.st238{clip-path:url(#SVGID_00000096051538859525721760000003546181596239399096_);}
</style>
<g>
	<path class="st0" d="M0.31,437.26c-0.01,34.43,27.9,62.35,62.33,62.36c0,0,0.01,0,0.01,0h239.35c34.44,0,62.36-27.91,62.36-62.34
		c0,0,0-0.01,0-0.01V61.86c0-34.43-27.91-62.34-62.36-61.48H62.66C28.22-0.48,0.31,27.44,0.31,61.86L0.31,437.26L0.31,437.26z"/>
	<path class="st1" d="M62.65,13.76c-26.57,0-48.1,21.54-48.1,48.1l0,0v375.39c0,26.57,21.53,48.11,48.1,48.12H302
		c26.57,0,48.12-21.54,48.12-48.12l0,0V61.86c0-26.57-21.55-48.11-48.12-48.1l0,0L62.65,13.76L62.65,13.76z"/>
	<path class="st0" d="M62.65,21.07c-22.53,0-40.79,18.26-40.8,40.79v375.39c0,22.53,18.27,40.8,40.8,40.81H302
		c22.54,0,40.8-18.28,40.8-40.81V61.86c0-22.53-18.25-40.79-40.78-40.79c-0.01,0-0.01,0-0.02,0H62.65L62.65,21.07z"/>
	<path class="st1" d="M102.29,297.09c24.14,0,43.72-13.06,43.72-43.03c0-28.94-19.57-43.04-43.72-43.04
		c-24.16,0-43.73,14.1-43.73,43.04C58.56,284.02,78.14,297.09,102.29,297.09z"/>
	<path class="st1" d="M135.56,215.72v-18.21h-11.8c-3.42,0-4.56-1.35-4.56-5.96v-34.51c0-2.58,0.84-3.11,2.37-3.11
		c4.49,0,6.59,7.78,6.59,17.28l19.78,0.04v-37.16H57.99v37.15l19.63-0.04c0-10.07,3.41-17.28,7.59-17.28c1.82,0,2.37,0.52,2.37,3.11
		v34.51c0,4.17-1.13,5.96-4.55,5.96H71.49v18.21L135.56,215.72L135.56,215.72L135.56,215.72z M111.9,448.4v9.44H58.73v-19.73h6.85
		c2.15,0,2.57-1.28,2.57-3.15v-38.59c0-1.57-0.29-3.42-2.57-3.42h-7.43v-19.86h23.87c-11-4.58-14-11.87-14-20.59v-36.72
		c0-2.15-0.43-3.44-2.86-3.44l-6.85,0.03v-20.06h90.66v20.06l-6.87-0.03c-2.44,0-2.86,1.3-2.86,3.44v36.72
		c0,9.3-4.49,18.88-13.92,21.45c8.72,1.72,13.87,5.86,17.35,14.37c3.44,8.59,0.42,17.58-5.64,23.87c-1.2,1.08-2.73,1.89-2.73,1.89
		c3.54,1.43,5.57,7.61,5.57,14.39l0.27,8.69c0.18,1.1,0.8,1.79,3.47,1.79l6.49,0.03v19.85H135.9
		C128.61,458.82,115.61,457.68,111.9,448.4L111.9,448.4z M77.25,109.28c0,4.21,0.07,5.53,8.28,5.9v4.92h-26.9v-4.92
		c5.32-0.37,7.14-1.58,7.14-5.9V90.06c0-4.32-0.07-5.46-5.46-5.94v-5.28l9.05,0.53c6.45,0,19.59-2.44,25.82,1.21
		c4.03,2.37,6.58,6.42,6.58,10.74c0,10.33-9.94,12.9-18.97,12.9h-5.53v5.06H77.25L77.25,109.28z M139.95,93.41
		c-2.32-6.14-5.13-8.44-13.03-8.44c-7.98,0-9.92,9.82-9.92,15.95c0,6.66,3.49,14.8,11.78,14.8c3.99,0,6.01-2.93,6.01-7.01
		c0-3.3-2.78-4.54-5.83-4.54v-4.39h22v4.39l-0.87,0.11c-4.36,0.61-3.99,2.57-3.99,6.29v9.09c0,1.74-2.34,2.11-4.92,0.71l-3.36-2.02
		c-1.82,1.02-3.06,2.02-4.65,2.64c-2.02,0.78-5.82,0.79-8.13,0.79c-12.8,0-21.2-9.65-21.2-21.34c0-12.23,9.37-21.52,22.33-21.52
		c3.49,0,8.97,1.13,11.97,2.75l2.73-2.27h3.99l0.29,12.52C145.13,94.97,141.3,95.5,139.95,93.41L139.95,93.41z M197.1,109.69
		c1.8,3.76,1.94,4.76,6.67,5.53l0.75,0.06v4.82H179.5v-4.82c1.44-0.18,5.71-0.06,5.71-1.88c0-0.82-0.69-2.36-0.98-3.18l-1.85-4.35
		H167.6l-1.92,4.35c-0.35,0.77-0.82,1.94-0.82,2.7c0,2.06,3.78,2.06,5.43,2.3l0.69,0.06v4.82h-21.24v-4.82
		c6.04-0.54,7.36-3.77,9.41-7.94l13.35-28.52h10.66L197.1,109.69L197.1,109.69z"/>
	<path class="st0" d="M79.5,84.59c-1.58,0-2.3,0.57-2.25,1.4v11.16h1.69c2.34,0,4.4-0.02,6.02-0.73c1.99-0.87,2.34-3.18,2.34-5.16
		C87.3,86.11,84.32,84.59,79.5,84.59z M180.13,100.73l-5.09-11.41l-5.3,11.41H180.13z"/>
	<path class="st2" d="M130.07,211.26v-9.11h-12.59c-2.3,0-4.07-2.66-4.07-5.31v-44.86c0-2.31,3.01-2.77,6.2-2.77
		c6.56,0,13.29,5.59,13.29,17.21l10.25,0.03v-28.06H62.87v28.06l10.26-0.03c0-11.62,6.73-17.21,13.28-17.21
		c3.19,0,6.22,0.45,6.22,2.77v44.86c0,2.66-1.77,5.31-4.08,5.31H75.95v9.11H130.07L130.07,211.26z M102.29,292.42
		c21.56,0,39.04-11.66,39.04-38.42c0-25.83-17.48-38.42-39.04-38.42s-39.04,12.59-39.04,38.42
		C63.25,280.75,80.74,292.42,102.29,292.42z"/>
	<path class="st1" d="M102.72,282.31c8.66,0,15.66-7.14,15.66-28.31c0-23.95-7-28.32-15.66-28.32c-8.66,0-15.67,6.22-15.67,28.32
		C87.05,277.03,94.05,282.31,102.72,282.31L102.72,282.31z"/>
	<path class="st0" d="M102.64,276.93c5.49,0,9.94-5.78,9.94-22.93c0-19.4-4.46-22.93-9.94-22.93c-5.5,0-9.94,5.04-9.94,22.93
		C92.69,272.64,97.14,276.93,102.64,276.93z"/>
	<path class="st2" d="M133.95,313.01c0-4.56,2.09-5.21,4.39-5.21h5.02l-0.08-10.78h-32.05v10.74h5.8c5.79,0,5.09,2.63,5.09,5.96
		v39.73c-0.52,4.21-4.08,9.13-14.28,9.13s-14.9-4.03-14.9-9.67v-39.89c0-4.56,2.11-5.21,4.4-5.21h6.99v-10.78H63.42v10.74h4.39
		c5.8,0,5.11,2.63,5.11,5.96v39.55c0,10.71,10.02,20.03,33.02,20.03c24.45,0,28.01-11.5,28.01-22.31L133.95,313.01L133.95,313.01z"
		/>
	<path class="st0" d="M114.03,312.6c1.43,0,2.41,1.61,2.41,3.61v34.67c0,3.68-3.89,6.67-8.69,6.67s-8.69-2.99-8.69-6.67v-34.67
		c0-1.99,0.98-3.61,2.41-3.61H114.03z"/>
	<path class="st2" d="M145.11,443.34c-3.09,0-8.14,0.35-9.54-2.08c-2.32-5.3,0.59-14.94-2.75-21.16c-1.6-3.44-5.57-5.39-8.13-6.54
		c3.06-0.85,6.48-2.77,8.94-4.68c6.12-5.23,6.16-15.2,2.39-22.52c-3.42-5.72-9.44-8.37-18.61-8.37l-54.31-0.08l-0.01,10.52
		l6.75-0.14c1.72,0,3.59,1.94,3.59,3.96l0.03,46.67c0,2.04-1.9,3.96-3.62,3.96l-6.75-0.13l0.01,10.51h43.67l0.03-10.51h-8.34
		c-1.73,0-3.81-2.27-3.81-4.3l-0.03-19.22h11.18c3.42,0,6.85,2.2,7.46,7.87c0.46,7.42-0.4,11.13,2.18,17.69
		c3.42,7.04,9.8,8.98,16.66,8.98h13L145.11,443.34L145.11,443.34z"/>
	<path class="st0" d="M100.11,434.96C100.11,434.96,100.11,433.12,100.11,434.96c0,1.87,1.43,2.44,2.5,2.44h5.79l-0.29-9.42
		c-0.08-2.58-0.51-3.58-2.51-3.58h-5.35L100.11,434.96L100.11,434.96z"/>
	<path class="st1" d="M106,388.39c3.96,0,9.71,1.86,10.74,6.67c0.56,3.77,0.22,7.54-2.79,10.61c-1.42,1.21-3.91,2.16-6.82,2.16
		H94.65v-19.48L106,388.39z"/>
	<path class="st0" d="M111.39,398.45c0,2.93-2.64,4.79-4.85,4.79h-6.8v-10.29h5.08c2.37,0,3.8,0.56,4.94,1.66
		C110.82,395.6,111.42,397,111.39,398.45L111.39,398.45z"/>
	<path class="st1" d="M192.81,46.37l96.14,60.53c-2.96,11.42,5.53,20.95,1.56,31.86c-1.03,16.44-18.88,19.73-28.56,29.95
		c-9.01,8.83-20.95,10.04-31.69,14.54l-1.2-0.36c-2.6-8.64-10.22-15.21-13.35-23.7c-7.78-2.94-16.96-3.65-24.4,0.35
		c-6.92,5.2-10.73,13.49-9.52,21.29c0.16,7.95,8.66,13.51,14.54,16.96c-7.62,5.37-3.11,16.61-3.81,23.71
		c-1.21,24.07,28.23,34.28,27.35,58.18c-2.24,15.57-3.8,33.58,6.25,46.04c8.13,6.05,7.95,16.09,12.97,23.71
		c0.52,7.1,8.49,11.95,5.04,19.56c4.85,5.37-3.81,5.89-3.81,10.73c0.69,4.33-4.17,3.65-6.25,5.54c-5.87-0.52-9.34,5.89-13.32,8.99
		l-9.52,10.92c-12.12,5.01-23.21,12.28-33.6,21.62c-4.16,1.21-9.52,1.04-11.25,6.23c-1.39,2.09-0.87,4.33-1.21,6.59
		c-6.23,6.05-11.09,13.32-11.25,21.97c0.16,6.06,2.77,11.09,4.16,16.63l108.89-0.01c3.63-2.42,10.9-2.75,10.37-9.16
		c-2.58-3.81-8.82-5.71-10.04-10.74c2.96-2.77,8.85-0.87,11.25-5.01c1.23-28.39,5.04-56.95,9.54-84.66
		c-3.99-30.47-11.07-59.55-19.56-88.11c-2.45-15.88-6.44-31.48-11.94-46.58l0.35-2.94c13.84-15.75,20.77-34.45,34.1-50.72
		c9.86-19.22,15.75-40.34,22.33-60.93c-0.69-5.02,0.7-11.25-4.85-13.85c-5.71-4.67-12.64-1.21-18.69-3.29L187.15,39.55
		c-7.29-2.08-15.3,8.42-20.42,14.02c-1.03,1.75,2.42,4.49,4.68,5.88c8.66,2.42,10.44-9.05,16.31-13.38
		C188.55,45.57,191.2,45.36,192.81,46.37L192.81,46.37z"/>
	<path class="st0" d="M259.35,193.28c-3.65,5.71-8.49,11.78-13.67,16.09c-1.56-1.9-3.47-3.81-3.29-6.58
		C247.82,199.25,253.49,196.08,259.35,193.28L259.35,193.28z M248.26,473.21c1.73,2.25,4.72,2.38,5.59,4.8l-91.35,0.1
		c0,0,0.43-2.13,0.95-3.51c4.33-12.3,14.54-20.44,24.58-29.6c6.23,1.73,11.42,6.4,17.83,7.95c14.37-18.34,34.97-32.89,50.21-50.7
		C249.65,424.38,245.84,449.14,248.26,473.21L248.26,473.21z"/>
</g>
</svg>
