<svg width="110" height="110" fill="none" xmlns="http://www.w3.org/2000/svg"><g clip-path="url(#a)"><path d="M101.173 23.246c-1.358 1.324-4.414 3.64-6.79 3.97-2.716 0-7.13-3.639-8.828-5.624-2.716-3.308-6.79-6.616-10.185-7.608 0-.662.34-3.639-2.716-4.631-1.697-.662-5.771-1.324-6.79 2.646-2.376 9.593-21.389 84.685-20.71 82.7 0 0-1.697 6.286 3.395 7.609 4.074.992 5.772-1.985 6.111-3.639 0 0 6.451-23.487 10.186-38.373 0 0 1.697.33 5.092 4.631 2.716 3.64 6.111 6.286 9.167 7.278 9.846 2.977 16.636-2.316 16.636-2.316 2.376-2.315 3.734-3.97 4.753-5.954 6.111-20.179 9.845-39.365 9.845-39.365 0-.993.68-2.647-.679-3.97-.679-.662-2.037-1.323-3.055-1.323-2.377-.331-3.395 1.323-5.432 3.97Z" fill="#fff"/><path d="M71.975 14.315c0-.993-.339-1.655-1.018-1.985-1.018-.331-2.037 0-2.377 1.323-7.13 27.456-13.92 55.244-21.049 82.7-.34.993.34 1.985 1.358 2.316 1.019.33 2.037-.33 2.377-1.323l20.71-83.032ZM61.111 54.672c1.019 0 2.037.331 3.056.662 2.716.992 4.074 2.977 6.111 4.962 3.055 3.639 4.753 5.293 6.79 6.616 1.019.662 4.753 2.646 9.506 2.316 7.13-.662 11.204-7.278 11.544-7.94l9.166-37.05c.34-.992.34-1.323 0-1.654-1.358-.661-2.037.331-2.037.331-.679.993-6.111 7.94-12.222 7.278-5.093-.662-9.846-5.955-11.204-7.609-1.018-1.323-2.037-2.646-3.734-3.97-2.377-1.984-6.112-2.646-7.809-3.307l-9.167 39.365Zm25.803 11.91 2.376-8.932c2.716-.331 5.772-1.985 8.488-4.962l-1.698 6.616c-3.055 3.638-6.11 6.285-9.166 7.277ZM70.618 56.325l2.376-9.262c.34.33.679.992 1.019 1.323 1.358 1.985 2.716 3.308 4.413 4.631l-2.376 9.263c-1.019-.993-2.377-2.316-3.395-3.97-.68-.33-1.359-1.323-2.037-1.985Zm14.259-26.795L82.5 38.794c-1.018-.993-2.376-2.316-3.734-3.97-.68-.992-1.358-1.654-2.037-2.646l2.376-9.263c.34.331.68.993 1.358 1.654 1.358 1.985 3.056 3.64 4.414 4.962Zm-4.074 21.833 2.376-8.931a10.314 10.314 0 0 0 6.45 2.315l-2.376 9.924c-1.697 0-4.074-1.654-6.45-3.308Zm20.71-15.217c-2.717 4.962-4.754 5.293-8.488 6.286L95.4 33.5c2.717-.33 5.772-1.985 8.488-4.962l-2.376 7.608Zm-33.272-6.285c2.037.331 4.074 1.323 6.111 3.308l-2.377 9.263c-2.036-1.654-4.074-2.978-6.11-3.308l2.376-9.263Z" fill="#000"/><path d="M9.167 23.246c1.358 1.324 4.413 3.64 6.79 3.97 2.716 0 7.13-3.639 8.827-5.624 2.716-3.308 6.79-6.616 10.185-7.608 0-.662-.34-3.639 2.716-4.631 1.698-.662 5.772-1.324 6.79 2.646 2.377 9.593 21.39 84.685 20.71 82.7 0 0 1.698 6.286-3.395 7.609-4.074.992-5.771-1.985-6.111-3.639 0 0-6.45-23.487-10.185-38.373 0 0-1.698.33-5.093 4.631-2.716 3.64-6.11 6.286-9.166 7.278-9.846 2.977-16.636-2.316-16.636-2.316-2.377-2.315-3.735-3.97-4.753-5.954C4.074 43.425.34 24.239.34 24.239c-.34-.662-.68-2.647.339-3.97.679-.662 2.037-1.323 3.056-1.323 2.037 0 3.055 1.654 5.432 4.3Z" fill="#fff"/><path d="M59.074 97.346c.34.992 1.358 1.323 2.377 1.323 1.018-.33 1.697-1.323 1.358-2.316-7.13-27.456-13.92-55.244-21.05-82.7-.34-.993-1.697-1.654-2.376-1.323-.68.33-1.358.992-1.019 1.984l20.71 83.032Zm-19.352-82.04c-1.697.662-5.432 1.324-7.808 3.309-2.037 1.323-2.716 2.646-4.075 3.97-1.018 1.323-5.771 6.946-10.864 7.608-6.45.662-11.543-6.285-12.222-7.278 0 0-.679-.992-1.697-.33-.34.33-.34.661 0 1.653l9.166 37.05c.34.662 4.414 7.278 11.543 7.94 4.754.33 8.149-1.654 9.507-2.316 2.037-1.323 3.734-2.977 6.79-6.616 2.037-1.985 3.395-3.97 6.11-4.962 1.02-.33 2.038-.662 3.056-.662l-9.506-39.365ZM14.26 58.974l-1.697-6.616c2.716 2.977 5.432 4.63 8.487 4.962l2.377 8.931c-3.056-.661-6.111-3.308-9.167-7.277Zm23.087-.331c-1.019 1.654-2.377 2.646-3.395 3.97l-2.377-9.263c1.358-1.323 2.716-2.977 4.414-4.631.34-.662.679-.993 1.018-1.323l2.377 9.262c-.68.33-1.358 1.323-2.037 1.985Zm-7.809-34.073c.68-.33 1.019-.992 1.358-1.323l2.377 9.262c-.68.662-1.358 1.324-2.037 2.316-1.019 1.654-2.377 2.977-3.395 3.97l-2.716-9.263c1.697-1.323 3.055-2.977 4.413-4.962Zm-7.13 30.103-2.376-9.924c2.037 0 4.414-.992 6.45-2.315l2.717 8.931c-2.038 1.654-4.414 3.308-6.79 3.308ZM6.111 28.54c2.716 2.977 5.432 4.631 8.488 4.962l2.376 8.932c-3.734-.993-5.771-.993-8.487-6.286L6.11 28.54Zm38.364 10.916c-2.037.331-4.074 1.324-6.11 3.308l-2.377-9.262c2.037-1.985 4.074-2.977 6.11-3.308l2.377 9.262Z" fill="#000"/></g><defs><clipPath id="a"><path fill="#fff" d="M0 0h110v110H0z"/></clipPath></defs></svg>