<?xml version="1.0" encoding="utf-8"?>
<!-- Generator: Adobe Illustrator 25.4.1, SVG Export Plug-In . SVG Version: 6.00 Build 0)  -->
<svg version="1.1" id="Layer_1" xmlns="http://www.w3.org/2000/svg" xmlns:xlink="http://www.w3.org/1999/xlink" x="0px" y="0px"
	 viewBox="0 0 500 241.62" style="enable-background:new 0 0 500 241.62;" xml:space="preserve">
<style type="text/css">
	.st0{fill:#FF3A00;}
</style>
<g>
	<path class="st0" d="M188.31,102.31h21.18l-20.75,65.03h-26.53l-12.62-45.78l-13.26,45.78h-26.1l-20.75-65.03h21.18l12.83,45.78
		l12.84-45.78h26.53l12.84,45.78L188.31,102.31L188.31,102.31z M94.19,27.65c0.64-2.35,2.78-5.56,3.64-8.13
		c0.64-2.14,0.43-3.64-0.43-4.06C98.04,8.4,93.12,1.77,86.06,0.27c-7.7-1.5-15.4,3.42-16.9,11.12s3.42,15.19,11.12,16.9
		c1.07,0.21,2.14,0.21,3.21,0.21c0.43,0.21,1.07,0.43,1.28,0.86c0.64,0.64,1.07,2.99,0.43,4.06c-0.43,1.07-3.42,4.28-6.85,7.92
		c-3.42,3.64-4.49,4.06-7.49,7.49c-1.5,1.71-1.93,3.85-1.93,3.85s-2.78,1.5-4.71,4.28c-1.93,2.57-4.49,7.92-4.49,7.92
		s-2.14,1.28-3.42,2.14c-1.07,1.07-1.93,1.71-3.64,3.85c0-1.93,0.64-2.78,1.93-3.64c0.86-0.64,2.14-3.85,2.35-7.7
		c1.71-0.86,2.99-2.78,2.99-4.92c0-2.99-2.57-5.56-5.56-5.56c-1.28,0-2.35,0.43-3.21,1.07c-2.14-1.07-4.92-1.5-8.13-0.86
		c-1.07,0.21-2.14,0.64-2.35,1.5c-0.64,0.21-1.71,0.64-2.99,2.57c-1.5,2.14-0.86,3.64-1.07,4.28c-0.21,0.64-2.57,1.93-1.5,6.85
		c0.43,1.93,0.21,3.42,0.43,4.06c0.21,0.86,0.43,1.28,1.28,1.5c0.43,0.21,1.07,0.43,1.5,0.64c0.86,0.21,1.07,0.43,1.28,1.28v1.5
		c0,0.21-0.21,0.64-0.43,0.64l-5.35,0.21c-3.21-0.21-4.92,0.86-4.92,0.86s-3.21,0.21-5.35,1.5c-2.14,1.28-4.92,4.71-5.56,7.7
		c-0.43,1.28-0.64,2.14-1.28,3.21c-0.43,0.64-2.35,1.93-3.85,3.42c-0.86-3.21-2.14-7.06-2.14-9.84v-0.64c0-0.86,0-1.71,0.43-2.57
		c0.86-1.28,1.5-2.78,1.28-4.49c0-1.07,0.21-2.35,0.43-3.42c0.21-0.86,0-1.5,0.43-2.14c0.21-0.43,0.64-1.07,0.64-1.71
		c0,0-0.86,0-1.5,0.21c-1.07,0.43-1.28,1.71-1.71,2.57c-0.21,0.64-0.21,1.5-0.64,1.71c-0.43,0.21-1.07,0.21-1.5-0.21
		c-0.43-0.64-0.64-1.07-1.07-1.71c-0.43-0.64-1.5-4.71-2.57-7.06c-0.43-0.43-0.64-1.07-1.28-1.28c-0.43-0.21-1.07,0.21-0.86,0.64
		c0.43,1.28,1.07,2.57,1.28,3.85c-0.43-0.86-1.07-1.71-1.5-2.35c-0.43-0.43-0.86-1.07-1.5-1.28c-0.43-0.21-0.86,0-1.07,0.43
		c-0.21,0.21,0.21,0.64,0.21,0.86c0.86,1.07,1.71,2.35,2.14,3.85c-0.43-0.43-0.86-0.86-1.5-1.07c-0.21,0-0.64,0-0.86,0.21
		c0,0.21,0,0.64,0.21,0.86l1.93,2.57c0.43,0.64,0.86,1.5,1.28,2.14c0-0.43-0.64-0.43-0.64,0.21c0.43,0.86,1.5,1.5,1.71,2.57
		c0.86,2.14,0.64,4.49,0.43,7.06c-0.21,2.57,0.21,10.05-0.43,13.26c-1.07,5.13-0.86,7.06,0.43,12.84c0.64,3.42,4.06,3.42,6.63,1.71
		c4.28-2.78,8.77-9.2,9.84-10.48c0.86-1.07,1.5-2.78,2.14-2.57c1.5,1.71,2.57,8.77,1.28,14.97c-0.21,1.28-0.86,3.64-0.86,4.28
		c0.21,0.64,0.86,1.07,0.86,1.28c-0.21,4.71-3.42,5.56-4.49,10.48c-1.07,4.92-0.64,8.34,0.21,13.26c0.86,4.92,3.21,9.84,5.13,13.48
		c1.93,3.64,2.35,6.2,2.35,6.2l1.71,0.21c0,0,2.57,10.48,7.92,18.61c15.62,23.53,21.18,34.01,22.25,36.37
		c1.07,2.14-0.43,2.14-0.43,3.21c0,1.07,0.86,2.14,3.42,3.85c2.78,1.71,4.92,7.7,5.99,10.91c1.07,3.21,3.21,9.41,7.92,8.77
		c4.71-0.64,4.71-6.85,3.85-10.7c-1.07-3.85-4.92-5.78-5.56-8.34c-0.64-2.35-3.21-6.42-3.42-11.34c0-0.64,0-1.28,0.21-2.35
		c0.21-2.78,1.71-6.42,1.71-8.56c-0.21-2.14-5.78-5.99-7.06-8.34c-1.28-2.35-2.14-7.27-2.57-7.49c-0.64-0.21-1.28-0.21-1.28-0.21
		s-0.86-16.26-2.99-22.89c-1.71-4.92-5.99-9.2-5.99-9.2s1.93-3.64,4.49-13.05c2.99-11.34-1.5-16.69-2.78-23.1
		c-1.07-5.13,0.21-12.84,3.42-20.32c1.28-2.99,3.64-10.48,3.85-14.33c0-1.71,1.07-2.99,2.78-5.35c1.71-2.35,3.21-4.92,3.85-7.06
		c0.64-2.14,2.35-4.28,4.92-7.91c1.28-1.93,1.93-3.64,1.93-3.64s4.71-4.71,8.13-9.41c4.06-5.35,4.71-8.56,4.92-9.63
		c0.21-1.07,1.93-2.35,2.78-4.28C92.9,33,93.54,30,94.19,27.65z M400.95,149.37c0,12.83-10.7,17.97-26.95,17.97h-57.12v-65.03h51.56
		c17.76,0,27.6,4.71,27.6,17.11c0,7.49-4.28,11.77-9.41,13.69c-0.21,0-0.43,0.21-0.43,0.43c0,0.21,0.21,0.43,0.43,0.43
		C394.75,135.04,400.95,140.17,400.95,149.37L400.95,149.37z M336.13,127.98h32.3c5.56,0,7.7-1.71,7.7-4.28
		c0-3.21-2.35-4.71-7.7-4.71h-32.3V127.98L336.13,127.98z M381.06,145.95c0-2.57-1.93-4.28-7.06-4.28h-37.86v8.98H374
		C379.35,150.87,381.06,148.94,381.06,145.95L381.06,145.95z M500,167.34h-23.1l-7.49-14.12h-36.37l-7.27,14.12h-22.89l35.08-65.03
		h26.31L500,167.34z M461.28,137.61l-10.27-19.47l-10.05,19.47H461.28z M281.37,146.38l-36.79-43.85h-27.38v65.03h19.25v-44.07
		l36.58,43.85h27.38v-65.03h-19.47v44.07H281.37z"/>
</g>
</svg>
