<svg width="110" height="110" fill="none" xmlns="http://www.w3.org/2000/svg"><path d="M105.468 0H23.793L4.532 110l44.401-15.708 37.285 15.312L105.468 0Z" fill="#fff"/><path d="m83.611 104.874-34.59-14.212-40.15 14.212 16.132-92.125h74.795L83.61 104.874Z" fill="#182D4D"/><path d="M26.642 3.388 25.63 9.174h74.783l1.018-5.786h-74.79Z" fill="#0060A8"/><path d="M55.731 89.1s3.427-6.347-.594-19.536a28.54 28.54 0 0 1-.841-11.341c-3.85 1.37-5.693 3.267-5.693 3.267l-.676-.44v4.598c-.094 4.142.803 6.05 1.65 6.886a9.523 9.523 0 0 0-1.012 2.53c-1.293 5.159-4.549 3.96-4.549 3.96 1.188-2.096 2.448-6.22.55-12.898-1.65-5.95-.968-8.178-.968-8.178a32.418 32.418 0 0 1 11.083-7.441c.154-1.579.22-3.136.247-4.774-1.54-1.37-3.3-2.69-4.95-3.267-4.95-1.739-3.344-4.334-3.344-4.334.606.457 1.32.747 2.074.841v-.71c.49.407 1.1.919 1.765 1.502a15.074 15.074 0 0 0 4.4 2.227c0-1.259-.071-2.326-.104-3.069-5.203-2.255-6.908-4.4-6.908-4.4-.237-.979-.226-2.75.869-6.303a9.517 9.517 0 0 0 .462-4.02 4.158 4.158 0 1 1 3.3.347c-.842 1.468-1.92 4.24-1.65 8.568a25.722 25.722 0 0 0 6.5 2.53c4.087 1.034 7.7 2.371 8.317 5.5.6 3.025-2.954 7.321-3.625 10.236-.67 2.915.814 6.264-3.074 17.43 0 0 2.079 2.579 1.683 6.979-.396 4.4.462 7.001 1.04 8.085a6.2 6.2 0 0 0-1.612 2.937c-.578 2.057-2.068 3.757-4.345 2.239" fill="#fff"/><path d="M62.562 36.025c-.83-.038-1.65-2.255-1.534-4.724.115-2.47 1.556-4.191 3.217-4.153 1.661.038 3.24 1.32 2.816 3.916-.506 3.102-3.382 5.022-4.499 4.95" fill="#fff"/><path d="M62.563 36.025c-.33 0-.66-.38-.93-.962 1.512-.237 4.538-2.123 5.142-5.006.09-.408.113-.827.072-1.242a3.9 3.9 0 0 1 .22 2.255c-.506 3.102-3.382 5.021-4.499 4.95l-.005.005Zm-8.729-18.683a4.001 4.001 0 0 1-6.534 4.62 4.18 4.18 0 0 0 1.892 2.238 9.544 9.544 0 0 1-.418 3.988 31.683 31.683 0 0 0-.484 1.76 19.434 19.434 0 0 1 3.46-3.768c.209-.57.465-1.122.764-1.65a4.164 4.164 0 0 0 1.32-7.222v.034ZM46.2 66.153a48.678 48.678 0 0 1-2.563-8.2s-.704 2.227.968 8.178c1.876 6.677.616 10.802-.55 12.897a2.904 2.904 0 0 0 2.623-.5c1.733-3.971.996-8.8-.461-12.375H46.2Zm9.531 1.578.858-.55a31.673 31.673 0 0 1-.797-11A22.59 22.59 0 0 0 48.9 58.85a3.24 3.24 0 0 0-2.078-.297 3.713 3.713 0 0 1 1.1 2.458v.039l.665.412s1.815-1.897 5.692-3.267a28.527 28.527 0 0 0 .842 11.341c4.02 13.2.594 19.536.594 19.536a2.629 2.629 0 0 0 2.2.512c3.24-12.6-2.2-21.846-2.2-21.846l.016-.006Zm9.851-24.629c-2.068 2.118-8.063 3.3-8.063 3.3l-.456-.467a17.177 17.177 0 0 0-7.013-4.521c-3.151-1.1-3.426-3.3-3.426-3.3s-1.65 2.596 3.343 4.334c.204.072.407.154.611.248.225.104.462.22.688.346.225.127.319.176.478.275l.143.088c.187.116.368.236.55.358l.077.054c.176.122.352.242.55.375l.55.412c.457.357.902.737 1.331 1.1.83.715 2.002 1.76 2.36 2.068a17.79 17.79 0 0 0 5.026-1.2c-1.188 2.355-2.458 4.34-1.495 7.354.545 1.751.756 3.59.621 5.418.61-4.087.17-6.116.6-7.964.55-2.338 2.925-5.566 3.541-8.31" fill="#C4C6C9"/></svg>