<svg width="110" height="110" fill="none" xmlns="http://www.w3.org/2000/svg"><path d="M59.191 78.962c3.813-2.01 7.018-6.655 8.679-12.977l2.519-9.588c.235-.906.473-1.808.711-2.713l.734-2.798c.269-1.032.539-2.063.81-3.095a24.823 24.823 0 0 0 2.123-2.27c.489-.589.945-1.2 1.368-1.833a25.506 25.506 0 0 0 4.433-14.391A25.633 25.633 0 0 0 54.94 3.663a25.634 25.634 0 0 0-25.633 25.634 25.505 25.505 0 0 0 4.429 14.399c.428.625.882 1.236 1.364 1.833.67.809 1.39 1.577 2.152 2.299l.81 3.08.734 2.798.451 1.727.051.198 2.728 10.376c1.661 6.322 4.866 10.967 8.68 12.977l.813 3.047c.627 2.36.627 4.844 0 7.205-.583 2.2-1.58 6.314-3.483 6.314h-7.553v10.82h30.294V95.528h-7.554c-1.903 0-4.271-4.133-4.85-6.314a14.036 14.036 0 0 1 0-7.205l.817-3.047Zm11.7-35.281a19.5 19.5 0 0 1-1.745 1.833 18.808 18.808 0 0 1-2.328 1.834l-.495.344a18.565 18.565 0 0 1-8.371 2.71l.473-3.054.044-.29a21.53 21.53 0 0 0 3.113-1.536c.44-.26.887-.503 1.309-.792.421-.29.898-.679 1.334-1.034a21.551 21.551 0 0 0 2.171-2.002l5.401.821c-.268.348-.572.763-.906 1.166ZM55.125 27.639c1.62.48 3.234 1.045 4.796 1.683a48.85 48.85 0 0 1 4.4 2.039c.386 1.356.644 2.746.77 4.15a22.614 22.614 0 0 1-.055 4.646 19.263 19.263 0 0 1-3.3 2.89c-.341.234-.704.421-1.06.634a19.193 19.193 0 0 1-3.227 1.58 21.706 21.706 0 0 1-4.7-1.28l-.657-.3a21.58 21.58 0 0 1-3.26-1.745l-1.231-8.617 7.524-5.68Zm-10.49-8.044-4.51 5.551a15.29 15.29 0 0 1 .843-3.55 15.226 15.226 0 0 1 2.2-3.934 27.604 27.604 0 0 1 4.63-.612 27.147 27.147 0 0 1 3.466.062l-6.63 2.483Zm26.957-4.862.942.916a21.693 21.693 0 0 1 3.3 6.487 22.13 22.13 0 0 1 .979 6.49v.498c-.733-1.466-1.973-3.512-3.608-4.576a23.284 23.284 0 0 0-.605-4.4 23.26 23.26 0 0 0-1.606-4.572l.598-.843Zm-6.63-.95a30.732 30.732 0 0 1 4.034 2.376l.242.52.22.481.271.678.18.455.256.774.125.366c.117.393.22.785.315 1.177.096.393.158.708.224 1.064l.055.366.11.734.048.418.066.667.029.436v.385l-6.072 4.789a53.6 53.6 0 0 0-4.4-2.017 53.87 53.87 0 0 0-4.814-1.694c-.169-1.664-.686-5.954-1.87-9.166l2.299-1.643 4.106-2.933a30.022 30.022 0 0 1 4.569 1.767h.007ZM54.901 6.747h.312l.99.264 2.603 3.644-6.376 4.562-9.145.249-1.441-4.4a21.67 21.67 0 0 1 13.057-4.32ZM33.605 28.593l-.58-.455a21.86 21.86 0 0 1 7.147-15.708l1.316 4.033-.18.477a15.283 15.283 0 0 0-2.47 4.55 15.1 15.1 0 0 0-.77 3.861l-.191.492-4.272 2.75Zm7.381 16.243a16.181 16.181 0 0 1-1.419-1.155 15.541 15.541 0 0 1-3.645-4.88 15.899 15.899 0 0 1-1.426-8.371l4.129-2.659 6.944 5.636 1.221 8.54-3.48 1.734-2.324 1.155Zm20.65 54.31v3.458H48.25v-3.457h13.387Zm-3.79-38.521c-2.49-1.544-5.526.535-8.8-1.328a6.788 6.788 0 0 1-2.01-1.833 10.089 10.089 0 0 1-1.35-2.35 16.101 16.101 0 0 1-.703-2.105 26.626 26.626 0 0 0 7.197 1.764l.48.025c.734.066 1.467.129 2.267.125.799 0 1.507-.114 2.247-.187.528-.055 1.075-.055 1.595-.132l.308-.048h.033a26.499 26.499 0 0 0 3.583-.894l.902-.286c1.207-.418 2.38-.93 3.509-1.53-.026.642-.07 1.343-.14 2.083a34.867 34.867 0 0 1-.267 2.156c-.143.983-.327 2.01-.58 3.099a39.135 39.135 0 0 1-5.936 13.49c.766-6.428-.07-9.534-1.313-11.103a4.186 4.186 0 0 0-1.015-.946h-.008Z" fill="#000"/><path d="M62.34 81.32c4.111-2.813 7.367-7.957 9.061-14.407l4.532-17.252a29.168 29.168 0 0 0 8.301-20.364A29.333 29.333 0 0 0 54.95.015a29.333 29.333 0 0 0-29.282 29.282c0 7.616 2.98 14.93 8.301 20.379L38.5 66.928c1.694 6.45 4.95 11.594 9.06 14.406l.437 1.632a10.464 10.464 0 0 1 0 5.32l-.088.334a26.533 26.533 0 0 1-1.034 3.27h-10.04V110h37.598V91.876H63.906a10.633 10.633 0 0 1-2.002-3.605 10.463 10.463 0 0 1 0-5.32l.437-1.632Zm-3.963 7.894c.58 2.2 2.933 6.314 4.851 6.314h7.553v10.82H40.487v-10.82h7.554c1.903 0 2.9-4.133 3.483-6.314.627-2.361.627-4.845 0-7.205l-.814-3.047c-3.813-2.01-7.018-6.655-8.679-12.977L39.303 55.61l-.051-.198-.451-1.727-.734-2.798-.81-3.08a26.042 26.042 0 0 1-2.152-2.299 21.45 21.45 0 0 1-1.364-1.833 25.506 25.506 0 0 1-4.433-14.377 25.633 25.633 0 0 1 25.63-25.634 25.634 25.634 0 0 1 25.63 25.634 25.505 25.505 0 0 1-4.43 14.399c-.43.625-.886 1.236-1.367 1.833-.66.8-1.369 1.558-2.123 2.27-.272 1.034-.542 2.065-.81 3.094l-.734 2.798c-.238.906-.477 1.808-.711 2.713l-2.52 9.589c-1.66 6.321-4.865 10.967-8.678 12.976l-.814 3.047a14.035 14.035 0 0 0-.004 7.198Z" fill="#fff"/><path d="m39.303 55.609-.051-.198.051.198Z" fill="#000"/><path d="M73.18 24.548c1.635 1.063 2.87 3.095 3.607 4.576v-.499a22.127 22.127 0 0 0-.979-6.49 21.693 21.693 0 0 0-3.3-6.486l-.942-.917-.616.855a23.266 23.266 0 0 1 1.606 4.572c.347 1.44.556 2.91.623 4.39ZM64.225 43.681c-.436.367-.869.715-1.334 1.034-.466.32-.87.532-1.31.792a21.523 21.523 0 0 1-3.112 1.536l-.044.29-.473 3.054a18.566 18.566 0 0 0 8.37-2.71l.496-.344a18.835 18.835 0 0 0 2.328-1.833 19.489 19.489 0 0 0 1.745-1.834c.334-.403.638-.803.906-1.18l-5.401-.822a21.576 21.576 0 0 1-2.17 2.017ZM54.006 16.584c1.185 3.212 1.702 7.502 1.87 9.167a53.839 53.839 0 0 1 4.815 1.694 62.052 62.052 0 0 1 4.4 2.017l6.072-4.789v-.385l-.03-.436-.066-.668-.047-.418-.11-.733-.055-.367a18.82 18.82 0 0 0-.224-1.063 23.06 23.06 0 0 0-.315-1.177l-.125-.367-.257-.773-.18-.455-.27-.678-.22-.48-.243-.521a30.743 30.743 0 0 0-4.033-2.376A30.012 30.012 0 0 0 60.401 12l-4.107 2.933-2.288 1.65Z" fill="#F3AA21"/><path d="m52.437 15.217 6.376-4.562-2.603-3.644-.99-.264h-.319a21.67 21.67 0 0 0-13.057 4.319l1.441 4.4 9.152-.25ZM38.067 25.358c.087-1.315.346-2.613.77-3.86a15.283 15.283 0 0 1 2.472-4.55l.18-.477-1.317-4.034a21.86 21.86 0 0 0-7.139 15.694l.58.454 4.264-2.742.19-.485Z" fill="#fff"/><path d="m52.1 43.68.656.302a21.71 21.71 0 0 0 4.712 1.28 19.196 19.196 0 0 0 3.226-1.581c.367-.213.734-.4 1.06-.634a19.259 19.259 0 0 0 3.3-2.89c.178-1.542.196-3.1.055-4.645a22.437 22.437 0 0 0-.77-4.151 56.82 56.82 0 0 0-4.4-2.039 51.216 51.216 0 0 0-4.796-1.683l-7.535 5.69 1.232 8.618c1.035.67 2.126 1.25 3.26 1.734Z" fill="#F3AA21"/><path d="m45.577 33.407-6.945-5.636-4.129 2.659c-.292 2.868.201 5.761 1.427 8.37a15.54 15.54 0 0 0 3.644 4.881c.451.412.925.797 1.42 1.155l2.324-1.155 3.48-1.734-1.221-8.54Z" fill="#fff"/><path d="M43.168 17.662a15.231 15.231 0 0 0-2.2 3.935 15.29 15.29 0 0 0-.858 3.556l4.51-5.551 6.622-2.482a27.145 27.145 0 0 0-3.465-.063c-1.551.072-3.093.274-4.61.605ZM60.181 72.673a39.133 39.133 0 0 0 5.1-10.307c.367-1.1.642-2.17.877-3.2.253-1.1.436-2.116.579-3.099.114-.752.209-1.467.268-2.156.07-.733.113-1.441.139-2.083-1.128.6-2.302 1.111-3.509 1.53l-.902.285c-1.172.382-2.369.68-3.582.895h-.033l-.308.048c-.521.077-1.067.077-1.595.132.517-.052 1.081-.055 1.573-.132-.492.077-1.056.08-1.573.132-.734.073-1.467.183-2.248.187-.8 0-1.536-.059-2.266-.125l-.48-.026A26.63 26.63 0 0 1 45 52.998c.186.717.421 1.42.704 2.105.342.84.796 1.63 1.35 2.35a6.786 6.786 0 0 0 2.009 1.833c3.263 1.863 6.299-.216 8.8 1.328.389.256.732.576 1.015.946 1.232 1.569 2.068 4.686 1.302 11.113Z" fill="#F3AA21"/><path d="M58.78 54.597c-.491.077-1.056.08-1.573.131.517-.054 1.082-.058 1.573-.131ZM54.96 54.912c.799 0 1.507-.114 2.247-.187-.74.073-1.448.183-2.247.187Z" fill="#fff"/><path d="M61.644 99.15H48.257v3.454h13.387V99.15Z" fill="#F3AA21"/></svg>